<?xml version="1.0" encoding="UTF-8"?>
<svg xmlns="http://www.w3.org/2000/svg" xmlns:xlink="http://www.w3.org/1999/xlink" viewBox="0 0 500 500" width="500px" height="500px">
<g id="surface26423778">
<path style=" stroke:none;fill-rule:nonzero;fill:rgb(25.882354%,40.392157%,69.803923%);fill-opacity:1;" d="M 250 30 C 128.5 30 30 128.5 30 250 C 30 360.300781 111.25 451.371094 217.121094 467.28125 L 217.121094 308.308594 L 162.691406 308.308594 L 162.691406 250.480469 L 217.121094 250.480469 L 217.121094 212 C 217.121094 148.289062 248.160156 120.320312 301.109375 120.320312 C 326.46875 120.320312 339.878906 122.199219 346.230469 123.058594 L 346.230469 173.539062 L 310.109375 173.539062 C 287.628906 173.539062 279.78125 194.851562 279.78125 218.871094 L 279.78125 250.480469 L 345.660156 250.480469 L 336.71875 308.308594 L 279.78125 308.308594 L 279.78125 467.75 C 387.160156 453.179688 470 361.371094 470 250 C 470 128.5 371.5 30 250 30 Z M 250 30 "/>
</g>
</svg>
