<?xml version="1.0" encoding="UTF-8"?>
<svg xmlns="http://www.w3.org/2000/svg" xmlns:xlink="http://www.w3.org/1999/xlink" viewBox="0 0 500 500" width="500px" height="500px">
<g id="surface26431208">
<path style=" stroke:none;fill-rule:nonzero;fill:rgb(100%,100%,100%);fill-opacity:1;" d="M 259.960938 480 C 133.125 480 29.921875 376.835938 29.921875 250 C 29.921875 123.164062 133.125 20 259.960938 20 C 317.421875 20 372.421875 41.289062 414.882812 79.960938 L 422.617188 87.03125 L 346.757812 162.890625 L 339.726562 156.875 C 317.460938 137.8125 289.140625 127.304688 259.960938 127.304688 C 192.304688 127.304688 137.226562 182.34375 137.226562 250 C 137.226562 317.65625 192.304688 372.695312 259.960938 372.695312 C 308.75 372.695312 347.304688 347.773438 365.46875 305.3125 L 249.960938 305.3125 L 249.960938 201.757812 L 475.46875 202.070312 L 477.148438 210 C 488.90625 265.820312 479.492188 347.929688 431.835938 406.679688 C 392.382812 455.3125 334.570312 480 259.960938 480 Z M 259.960938 480 "/>
</g>
</svg>
