<?xml version="1.0" encoding="utf-8"?>
<!-- Generator: Adobe Illustrator 26.0.3, SVG Export Plug-In . SVG Version: 6.00 Build 0)  -->
<svg version="1.1" id="Layer_1" xmlns="http://www.w3.org/2000/svg" xmlns:xlink="http://www.w3.org/1999/xlink" x="0px" y="0px"
	 viewBox="0 0 2000 2000" enable-background="new 0 0 2000 2000" xml:space="preserve">
<g>
	<g>
		<path fill="#FEFEFD" d="M76.55,274.74c615.56,0,1231.13,0,1846.9,0c0,483.35,0,966.79,0,1450.53c-615.5,0-1231.2,0-1846.9,0
			C76.55,1241.98,76.55,758.4,76.55,274.74z M458.46,1052.7c-13.54,8.56-27.08,17.13-40.61,25.69
			c-12.45,13.28-24.9,26.55-37.35,39.83c-1.95-1.11-4.21-1.89-5.79-3.38c-22.05-20.81-43.59-42.17-66.14-62.42
			c-12.09-10.85-26.67-18.15-43.08-20.99c-18.18-3.14-30.18,9.18-25.97,27.05c1.23,5.2,3.02,10.31,5.01,15.28
			c13.65,34.13,33.01,65.11,53.32,95.52c12.42,18.59,25.27,36.9,36.72,53.59c0,21.55,0,41.03,0,60.52
			c3.38,35.08,15.72,66.84,35.5,95.85c3.41,5.08,6.82,10.16,10.23,15.23c12.52,13.83,23.89,28.97,37.81,41.22
			c24.24,21.32,52.75,34.86,85.3,38.7c15.19,0.76,30.39,1.52,46.8,2.35c13.74,12.12,28.81,25.41,43.88,38.71
			c7.21,5.92,14.41,11.84,21.62,17.76c20.1,16.66,41.48,31.56,65.8,41.14c11.04,4.34,23.37,6.76,35.25,7.31
			c20.45,0.94,32.02-12.04,29.12-32.35c-1.57-10.98-4.58-22.45-9.92-32.04c-11.48-20.63-24.89-40.19-37.51-60.19
			c-0.64,0.39-1.29,0.78-1.93,1.17c0.5-1.32,1-2.64,1.51-3.96c5.64-9.81,11.28-19.63,16.92-29.44c21.09-0.57,42.17-1.14,63.25-1.71
			c8.28-1.63,16.55-3.26,24.83-4.88l-0.2,0.04c10.3-3.42,20.61-6.85,30.91-10.27c0.81-0.24,1.63-0.49,2.44-0.73
			c4.62-1.85,9.24-3.69,13.86-5.54c30.44,41.17,62.6,80.71,100.79,115.23c29.97,27.1,62.32,50.21,99.09,66.97
			c25.45,11.6,52.2,18.32,80.18,16.53c29.75-1.9,58.25-9.81,84.57-24.14c17.93-9.76,34.81-21.15,50-36.07
			c-66.5-23.04-132.12-45.77-197.9-68.55c0-4.91,0-8.29,0-11.67c0-75.65,0.02-151.31-0.01-226.96c-0.01-25.88-0.18-51.75-0.28-77.63
			c-0.01-1.99-0.03-3.98-0.04-5.97c0.11-3.69,0.32-7.39,0.32-11.08c0.02-132.86,0.01-265.71,0.01-398.57c0-3.64,0-7.27,0-10.64
			c2.94-1.99,4.97-3.52,7.15-4.81c100.03-59.13,200.06-118.27,300.18-177.24c3.56-2.1,8.11-2.54,12.04-3.71
			c4.36,11.2,3.59,259.82-0.91,263.83c-1.69-0.09-4.09-0.22-8.97-0.48c-0.06-41.3-0.13-82.04-0.16-122.78
			c-0.03-40.74-0.01-81.47-0.01-124.08c-100.4,59.18-198.87,117.22-297.08,175.11c0,242.97,0,485.28,0,728.24
			c65.45,22.61,130.76,45.16,196.7,67.94c7.86-8.9,15.44-17.48,23.56-26.67c-70.02-23.26-138.58-46.04-206.79-68.7
			c0-227.93,0-454.6,0-681.87c87.23-51.12,174.49-102.26,263.38-154.35c0,278.5,0,554.72,0,832.09c7.19-8,13.43-14.93,20.22-22.48
			c0-3.15,0-6.82,0-10.5c0-121.76-0.02-243.52,0.07-365.28c0-4.6,1.03-9.2,1.68-14.62c4.13,0.51,6.74,0.83,10.7,1.32
			c0,125.35,0,249.96,0,376.68c3.85-3.54,5.86-5.41,7.89-7.25c16.86-15.36,34.83-29.09,55.25-39.55
			c43-22.02,89.65-29.9,136.81-36.07c23.04-3.02,46.53-4.56,68.91-10.32c60.37-15.53,108.7-50.55,148.36-97.86
			c48.45-57.78,73.75-124.16,75.26-200c0.86-43.14,4.63-86.23,7.25-129.34c2.5-41.11,6.48-82.18,7.42-123.33
			c0.79-34.6-0.91-69.34-3.23-103.9c-2.26-33.75-8.49-67.08-19.15-99.26c-18.91-57.09-51.16-106.41-92.1-149.84
			c-35.56-37.72-76.97-67.85-124.57-89.25c-49.34-22.18-99.87-28.41-152.88-15.52c-70.94,17.25-119.49,58.35-143.58,128.22
			c-7.63,22.14-17.76,43.73-29.22,64.19c-19.32,34.5-47.56,59.68-85.22,73.7c-42.45,15.8-86.14,15.03-129.56,7.8
			c-57.66-9.61-111.88-1.5-163.84,24.56c-51.65,25.9-96.76,60.21-135.02,103.56c-22.44,25.43-42.51,52.5-58.87,82.28
			c-16.65,30.32-28.41,62.49-37.1,95.86c-0.87-0.01-1.74-0.03-2.6-0.04c-4.38-20.43-15.89-31.41-36.88-34.05
			c-26.36-3.32-51.72-9.18-74.02-24.69c-19.29-13.42-33.24-31.54-45.74-50.97c-15.79-24.56-34.82-45.24-63.09-55.84
			c-24.68-9.25-50.22-11.68-76.14-9.97c-29.48,1.94-57.55-2.37-83.72-16.31c-29.48-15.71-59.86-16.5-91.49-7.78
			c-53.94,14.86-94.74,45.25-116.54,97.89c-15.81,38.18-17.91,77.06,2.99,113.82c23.47,41.29,62.72,58.73,108.01,64.64
			c36.45,4.76,72.38-1.44,108.4-5.83c18.83-2.29,37.73-4.93,56.65-5.37c26.75-0.62,50.99,9.06,74,22.02
			c29.25,16.48,59.3,30.91,93.57,32.89c25.76,1.49,49.56-3.89,68.79-22.66c0.37,1.84,1.49,3.93,0.98,5.5
			c-6.19,19.07-12.62,38.06-19.01,57.14c-2.24,0.12-4.17,0.22-6.11,0.32c-27.69-5.18-55.53-6.71-83.56-3.42
			C508.88,1034.92,482.73,1040.19,458.46,1052.7z M1547.18,1678.97c12.08-1.53,24.31-2.28,36.2-4.72
			c38.24-7.83,70.51-25.53,91.15-59.92c27.35-45.58,34.09-94.5,20.91-145.95c-6.55-25.59-18.62-48.12-39.62-65.01
			c-28.74-23.11-62.11-27.86-96.73-20.67c-79.53,16.52-133.46,63.08-156.85,141.67c-13.45,45.2-1.33,94.28,43.17,124.66
			C1475.93,1669.88,1510.35,1678.18,1547.18,1678.97z M1296.49,1713.69c5.06-0.59,10.19-0.87,15.18-1.84
			c22.52-4.36,41.89-14.04,51.22-36.29c10.81-25.79,6.61-50.94-8.33-73.86c-12.07-18.52-30.71-24.85-51.95-18.95
			c-25.78,7.16-42.99,24.56-54.17,48.15c-6.85,14.45-8.99,29.94-5.15,45.62C1248.71,1698.74,1270.1,1713.25,1296.49,1713.69z
			 M1215.7,882.05c-7.46-12.39-13.8-23.36-20.59-34.04c-5.58-8.78-14.03-10.82-21.87-5.91c-7.09,4.45-9.09,13.3-4.3,21.6
			c11.31,19.62,22.94,39.04,34.29,58.64c3.9,6.73,8.99,11,17.16,9.82c7.81-1.12,11.28-6.67,13.42-13.61
			c20.65-66.96,41.37-133.91,61.98-200.89c0.93-3.02,0.94-6.32,1.54-10.58c-4.12-0.39-6.96-0.66-10.49-0.99
			C1263.2,764.54,1239.82,822.39,1215.7,882.05z M1290.06,1175.24c-2.18,3.33-4.95,6.4-6.44,10c-12.05,29.25-23.87,58.6-35.72,87.93
			c-10.54,26.1-21.01,52.23-32.16,79.94c-7.47-12.44-13.97-23.61-20.81-34.56c-5.1-8.16-13.62-10.38-21.14-5.99
			c-7.15,4.16-10.12,13.04-5.74,20.65c12.14,21.1,24.75,41.94,37.26,62.84c3.66,6.11,9.87,8.78,16.04,6.55
			c4.39-1.59,8.8-6.04,10.91-10.34c3.45-7.02,5.05-14.95,7.4-22.51c18.76-60.48,37.47-120.97,56.34-181.41
			C1297.61,1183.15,1298.17,1178.89,1290.06,1175.24z M1215.7,1110.25c-7.21-12.08-13.28-22.46-19.55-32.71
			c-5.7-9.31-14.16-12.03-22.23-7.44c-7.93,4.52-9.92,13.56-4.56,22.74c11.14,19.06,22.46,38.01,33.76,56.98
			c3.75,6.29,8,11.8,16.68,10.67c8.81-1.15,11.89-7.22,14.21-14.76c19.19-62.37,38.56-124.69,57.84-187.04
			c2.14-6.93,4.07-13.93,6.09-20.87c-2.78-1.92-4.58-3.16-7.68-5.3c-2.35,3.39-5.11,6.16-6.47,9.5
			c-14.96,36.61-29.69,73.31-44.5,109.97C1231.73,1070.73,1224.13,1089.45,1215.7,1110.25z M230.18,1091.26
			c-0.17-12.14-11-22.47-23.29-22.19c-12.44,0.28-22.17,10.79-21.78,23.52c0.37,12.03,10.63,21.86,22.66,21.71
			C220.01,1114.15,230.35,1103.51,230.18,1091.26z M372.13,1458.86c-44.47-40.16-75.79-89.43-99.62-143.93
			C293.23,1371.53,325.59,1420.1,372.13,1458.86z M373.31,1459.71c31.18,28.62,67.43,47.76,108.99,56.57
			C442.34,1504.47,405.88,1485.98,373.31,1459.71z M118.86,878.97c-2.29,24.59,36.31,66.45,62.88,66.27
			C149.53,931.75,127.01,911.98,118.86,878.97z M429.23,1512.98c-12.53-4.42-25.55-7.82-37.46-13.53
			c-12.14-5.82-23.2-13.91-34.73-21C378.05,1496.65,400.65,1511.6,429.23,1512.98z M352.14,1057.88
			c-1.18-8.66-4.71-12.92-10.38-11.35c-3.56,0.99-8.03,5.71-8.5,9.24c-0.74,5.52,3.94,9.92,9.73,8.72
			C346.71,1063.71,349.76,1059.7,352.14,1057.88z M179.03,693.47c17.76-8.58,33.23-16.05,49.59-23.96
			C209.69,672.22,194.27,679.94,179.03,693.47z M584.01,781.84c5.63,13.41,21.28,26.12,28.01,24.85
			C603.38,799.02,593.86,790.58,584.01,781.84z"/>
		<path fill="#FDCD2F" d="M721.34,875.49c8.69-33.38,20.45-65.55,37.1-95.86c16.36-29.78,36.43-56.84,58.87-82.28
			c38.26-43.35,83.37-77.67,135.02-103.56c51.97-26.06,106.18-34.17,163.84-24.56c43.42,7.23,87.1,8,129.56-7.8
			c37.66-14.02,65.9-39.2,85.22-73.7c11.46-20.46,21.58-42.05,29.22-64.19c24.09-69.88,72.64-110.97,143.58-128.22
			c53.01-12.89,103.54-6.66,152.88,15.52c47.59,21.4,89.01,51.53,124.57,89.25c40.94,43.43,73.19,92.75,92.1,149.84
			c10.66,32.18,16.89,65.51,19.15,99.26c2.32,34.56,4.02,69.3,3.23,103.9c-0.94,41.14-4.92,82.21-7.42,123.33
			c-2.62,43.1-6.39,86.19-7.25,129.34c-1.51,75.84-26.82,142.21-75.26,200c-39.66,47.31-87.99,82.34-148.36,97.86
			c-22.38,5.75-45.87,7.3-68.91,10.32c-47.16,6.17-93.81,14.05-136.81,36.07c-20.42,10.46-38.39,24.19-55.25,39.55
			c-2.03,1.85-4.04,3.71-7.89,7.25c0-126.72,0-251.33,0-376.68c-3.95-0.49-6.57-0.81-10.7-1.32c-0.65,5.42-1.68,10.02-1.68,14.62
			c-0.09,121.76-0.07,243.52-0.07,365.28c0,3.68,0,7.35,0,10.5c-6.79,7.54-13.03,14.48-20.22,22.48c0-277.37,0-553.6,0-832.09
			c-88.89,52.09-176.15,103.23-263.38,154.35c0,227.27,0,453.93,0,681.87c68.2,22.66,136.77,45.44,206.79,68.7
			c-8.12,9.19-15.7,17.77-23.56,26.67c-65.94-22.78-131.26-45.33-196.7-67.94c0-242.96,0-485.26,0-728.24
			c98.21-57.89,196.68-115.93,297.08-175.11c0,42.61-0.02,83.35,0.01,124.08c0.03,40.74,0.1,81.48,0.16,122.78
			c4.88,0.26,7.28,0.39,8.97,0.48c4.5-4.01,5.27-252.63,0.91-263.83c-3.93,1.17-8.48,1.61-12.04,3.71
			c-100.12,58.97-200.15,118.11-300.18,177.24c-2.18,1.29-4.21,2.82-7.15,4.81c0,3.37,0,7.01,0,10.64c0,132.86,0,265.71-0.01,398.57
			c0,3.69-0.21,7.39-0.32,11.08c-3.14,0.59-6.56,0.6-9.36,1.92c-4.79,2.24-9.19,5.31-13.76,8.03c-0.55-0.46-1.1-0.92-1.65-1.39
			c6.02-10.51,17.72-17.67,19.16-30.91c-3.61-2.88-6.57-5.25-11.06-8.83c-10.59,9.62-21.11,19.17-31.89,28.96
			c-1.85-8.37,3.55-18.28-8.18-24.47c-1.77,5.43-3.5,9.79-4.6,14.3c-4.03,16.61-8.38,32.91-20.55,46
			c-14.48,15.56-28.48,31.57-42.69,47.38c-7.12,5.62-14.09,11.44-21.39,16.82c-11.37,8.39-24,13.03-38.33,10.45
			c-18.51-3.33-32.11-14.81-45.78-28.32c6.25-5.77,12.16-11.24,17.32-16.01c12.45,1.4,21.22,13.04,36.1,6.5
			c-4.94-4.57-8.55-7.91-11.92-11.03c8.77-3.31,19.6,5.18,28.49-6.31c-3.03-1.79-5.43-3.22-7.38-4.38
			c2.73-7.91-1.54-10.8-6.85-12.09c-10.06-2.43-20.27-4.23-30.72-6.36c7.81-6.05,15.64-12.13,24.45-18.97
			c-3.12-1.92-4.72-3.7-5.74-3.42c-10.55,2.92-21,6.18-31.66,9.4c-0.85-5.79,5.16-14.21-6.27-19.21c-3.3,6.29-7.77,12.08-9.44,18.58
			c-3.65,14.23-14.34,19.93-26.33,25.03c-3.95-5.15-7.53-10.29-11.6-15.01c-24.12-27.96-48.35-55.82-72.54-83.72
			c-2.53-32.3-5.05-64.6-7.58-96.9c11.76-1,23.7-3.82,28.69-15.15c4.49-10.18,5.32-21.98,7.89-33.65c-0.77,0.06,0.06,0.01,0.88-0.07
			c5.49-0.49,10.61-2.19,10.59-8.62c-0.02-6.79-5.55-5.92-10.43-6.82c-3.49-0.64-7.62-3.71-9.37-6.85
			c-8.08-14.56-15.42-29.52-23.02-44.34C720.4,878.5,720.87,876.99,721.34,875.49z M1382.18,968.5c8.03-5.94,9.89-62.26,3.19-72.98
			c-2.18,0.45-4.68,0.97-7.93,1.64c0,22.03-0.13,43.2,0.19,64.36C1377.67,963.71,1380.4,965.86,1382.18,968.5z"/>
		<path fill="#1B1B1B" d="M719.93,880c7.6,14.82,14.94,29.79,23.02,44.34c1.75,3.15,5.88,6.21,9.37,6.85
			c4.88,0.9,10.41,0.04,10.43,6.82c0.02,6.43-5.1,8.13-10.59,8.62c-0.83,0.07-1.66,0.12-0.88,0.07
			c-2.57,11.67-3.41,23.47-7.89,33.65c-4.99,11.33-16.94,14.15-28.69,15.15c-3.04-0.27-6.08-0.53-9.78-0.85
			c-4.17,16.24-8.25,32.16-12.34,48.09c-0.9,0.02-1.8,0.05-2.7,0.07c6.64-20.62,1.64-39.96-8.88-60.88
			c18.14,9.51,34.34,14.72,50.84,4.9c18.45-10.97,13.35-29.53,12.54-46.59c11.49,4.05,13.1,3.51,14.55-5.33
			c-16.28,3.68-19.05-8.23-23.57-19.38c-4.1-10.14-10-19.55-15.94-30.87c-7.53,32.06-23.48,54.54-51.82,70
			c-2.38-5.18-3.44-8.67-5.43-11.49c-2.04-2.89-5-5.14-7.55-7.67c-1.48,0.16-2.97,0.33-4.45,0.49c-0.72,0.4-1.43,0.79-2.15,1.19
			c0.12,0.55,0.22,1.04,0.32,1.52l0.15-0.1c-2.31,3.37-7.04,7.28-6.43,10c1.22,5.42,5.37,10.18,8.31,15.21
			c0.96-0.34,1.92-0.67,2.88-1.01c-1.68,5.04-3.36,10.08-5.04,15.11c-0.64-1.63-1.27-3.25-2.09-5.35c-0.79,0.21-1.69,0.45-2.59,0.69
			c-19.23,18.77-43.03,24.14-68.79,22.66c-34.26-1.98-64.32-16.41-93.57-32.89c-23.01-12.96-47.25-22.65-74-22.02
			c-18.92,0.44-37.82,3.07-56.65,5.37c-36.02,4.39-71.95,10.59-108.4,5.83c-45.29-5.91-84.54-23.35-108.01-64.64
			c-20.9-36.76-18.79-75.64-2.99-113.82c21.8-52.64,62.6-83.03,116.54-97.89c31.62-8.71,62-7.93,91.49,7.78
			c26.16,13.94,54.24,18.25,83.72,16.31c25.92-1.71,51.47,0.72,76.14,9.97c28.26,10.59,47.3,31.28,63.09,55.84
			c12.5,19.44,26.45,37.56,45.74,50.97c22.3,15.51,47.66,21.36,74.02,24.69c20.99,2.64,32.5,13.62,36.88,34.05
			C719.13,876.97,719.53,878.48,719.93,880z M400.49,743.02c7.1,0.11,13.82-6.36,13.85-13.34c0.03-7.04-6.58-13.4-13.82-13.3
			c-7.02,0.1-13.02,5.91-13.28,12.85C386.97,736.28,393.34,742.91,400.49,743.02z M443.45,717.25c-4.68-3.04-7.61-6.35-9.52-5.84
			c-2.65,0.71-4.54,4.29-6.75,6.65c2.33,1.95,4.55,5.25,7.02,5.45C436.43,723.68,438.94,720.48,443.45,717.25z"/>
		<path fill="#FDCD30" d="M1547.18,1678.97c-36.83-0.79-71.25-9.09-101.77-29.93c-44.51-30.39-56.63-79.46-43.17-124.66
			c23.39-78.59,77.32-125.14,156.85-141.67c34.62-7.19,67.99-2.44,96.73,20.67c21,16.88,33.07,39.42,39.62,65.01
			c13.18,51.45,6.44,100.37-20.91,145.95c-20.64,34.39-52.91,52.09-91.15,59.92C1571.49,1676.68,1559.25,1677.44,1547.18,1678.97z"
			/>
		<path fill="#FDCD30" d="M1066.47,1155.42c0.1,25.88,0.26,51.75,0.28,77.63c0.04,75.65,0.01,151.31,0.01,226.96
			c0,3.38,0,6.77,0,11.67c65.77,22.78,131.39,45.51,197.9,68.55c-15.19,14.92-32.08,26.31-50,36.07
			c-26.32,14.34-54.82,22.24-84.57,24.14c-27.98,1.79-54.73-4.94-80.18-16.53c-36.78-16.76-69.12-39.87-99.09-66.97
			c-38.18-34.52-70.35-74.06-100.79-115.23c29.69-14.34,56-33.37,78.78-57.18c40.97-42.83,71.84-92.72,100.17-144.3
			c8.35-15.2,15.75-30.82,31.86-39.71C1063,1159.35,1064.61,1157.15,1066.47,1155.42z M924.86,1397.04
			c30.58-9.49,102.51-118.21,99.11-149.62C1002.3,1304.83,973.91,1357.75,924.86,1397.04z"/>
		<path fill="#FBCC2F" d="M836.17,1407.27c-0.81,0.24-1.63,0.49-2.44,0.73c-0.88-0.6-1.98-1.9-2.62-1.71
			c-9.11,2.8-18.17,5.75-27.17,8.87c-0.66,0.23-0.76,2.03-1.13,3.1c0,0,0.2-0.04,0.2-0.04c-2.28-0.48-4.65-1.63-6.81-1.32
			c-6.07,0.89-12.06,2.39-18.08,3.65c-0.54-1.5-1.49-2.98-1.56-4.5c-1.91-41.92,4.32-82.57,18.26-122.2
			c8.26-23.5,21.36-43.5,39.27-60.77c7.66,6.39,15,12.51,22.95,19.14c-8.53,2.76-16.62,5.05-24.44,8.03
			c-4.69,1.78-9.48,5.52-6.6,10.83c1.81,3.35,7.02,5.91,11.11,6.68c3.87,0.73,8.36-1.01,12.42-2.22
			c13.6-4.05,26.87-9.69,40.72-12.24c21.86-4.01,38.44-15.93,53.61-30.9c2.28-1.77,4.56-3.53,6.85-5.3c0.55-0.59,1.1-1.18,1.66-1.77
			l-0.12,0.11c5.3,0.4,10.61,0.79,18.2,1.36c7.22-14.25,25.39-24.2,20.81-45.65c12.51-14.71,14.14-33.87,19.9-51.34
			c0.9,0.15,1.81,0.3,2.71,0.45c-0.47,8.84-0.95,17.69-1.49,27.92c12.85-12.08,24.52-23.07,36.19-34.05c0.72,0.7,1.43,1.4,2.15,2.1
			c-7.46,9.01-14.93,18.03-22.39,27.04c0.75,0.61,1.51,1.22,2.26,1.82c8.17-8.99,16.33-17.98,24.5-26.96
			c-1.64,14.68-17.76,21.27-19.73,38.8c6.66-2.95,11.09-4.91,15.53-6.87c0.59,0.58,1.19,1.15,1.78,1.73
			c-10.26,6.42-16.14,16.2-21.66,26.64c-21.54,40.72-45.41,80-73.37,116.71c-28.05,36.84-60.76,68.3-102.32,89.68
			c-6.31,3.24-12.79,6.14-19.1,9.38C835.78,1404.45,836.16,1406.22,836.17,1407.27z M894.33,1347.4c-2.52-3.06-4.31-7.28-7.03-8.01
			c-3.52-0.95-8.36-0.12-11.64,1.72c-10.03,5.65-19.42,12.42-29.39,18.2c-5.8,3.37-8.68,7.74-6.03,13.89
			c2.66,6.17,8.46,8.21,14.15,4.92c11.92-6.88,23.46-14.44,34.85-22.16C891.46,1354.46,892.31,1350.93,894.33,1347.4z
			 M822.01,1370.76c-7.59-0.18-13.69,4.45-14.07,10.67c-0.37,5.97,4.35,10.98,10.39,11.02c7.42,0.05,13.84-4.81,14.2-10.75
			C832.89,1375.83,828.15,1370.91,822.01,1370.76z M1020,1160.56c-0.85-0.41-1.7-0.82-2.55-1.23c0.79,10.56-6.23,13.82-14.43,15.98
			c0.65,1.06,1.3,2.11,1.95,3.17c5.17-2.27,10.33-4.54,16.82-7.39c2.99,0.51,7.7,1.31,12.42,2.11c0.21-0.83,0.41-1.67,0.62-2.5
			c-4.54-1.45-9.09-2.89-13.52-4.3C1020.83,1164.28,1020.41,1162.42,1020,1160.56z M963.09,1235.75
			c-9.77-6.03-12.51-5.22-17.78,4.23c3.04,1.4,6.43,4.37,8.76,3.69C957.23,1242.76,959.57,1239.04,963.09,1235.75z"/>
		<path fill="#252420" d="M943.85,1232.43c-15.17,14.97-31.74,26.89-53.61,30.9c-13.85,2.54-27.13,8.19-40.72,12.24
			c-4.05,1.21-8.55,2.95-12.42,2.22c-4.09-0.77-9.3-3.33-11.11-6.68c-2.88-5.32,1.91-9.05,6.6-10.83
			c7.83-2.98,15.92-5.27,24.44-8.03c-7.95-6.63-15.29-12.75-22.95-19.14c-17.91,17.27-31,37.27-39.27,60.77
			c-13.93,39.63-20.17,80.28-18.26,122.2c0.07,1.52,1.02,3,1.56,4.5c0.02,0.85,0.04,1.7,0.06,2.55
			c-21.09,0.57-42.17,1.14-63.26,1.71c-0.62-0.48-1.24-0.96-1.86-1.44c10-23.14,19.75-46.37,23.38-71.99
			c-6.9,6.94-16.07,13.76-18.11,22.28c-4.47,18.71-14.78,31.27-30.7,40.46c-4.1,2.37-8.07,4.98-12.18,7.54
			c0.25,5.23-0.44,10.02,0.83,14.21c6.22,20.59-9.68,31.29-24.71,31.91c-11.06,0.45-18.61,5.7-23.6,15.29
			c-2.47,4.75-4.82,9.63-7.83,14.04c-5.28,7.75-11.04,15.17-21.27,16.76c-1.6,0.52-3.19,1.05-4.79,1.57
			c-15.07-13.29-30.14-26.59-43.88-38.71c-16.41-0.82-31.61-1.59-46.8-2.35c1.35-0.67,2.69-1.34,4.04-2.01
			c43.44,4.33,83.32-5.97,118.25-31.81c28.04-20.74,55.41-42.59,81.53-65.69c40.01-35.39,71.43-78.42,103.24-121.15
			c-7.99-3.93-15.88-7.56-23.53-11.64c-6.28-3.35-9.21-8.9-9.34-16.09c-0.06-3.38-0.84-6.74-1.48-11.54
			c-13.44,9.12-25.52,17.07-37.34,25.39c-25.57,18.02-51.03,36.43-81.42,45.5c-12.35,3.69-25.5,5.82-38.38,6.38
			c-22.39,0.97-42.31,10.4-63.35,15.98c-6.81,1.81-13.91,3.81-20.8,3.54c-3.72-0.14-8.69-4.15-10.53-7.73
			c-2.66-5.17,1.54-9.33,6.29-11.24c7.08-2.85,14.55-4.73,21.73-7.36c7.58-2.78,15.01-5.95,22.71-9.03
			c-4.83-7.53-8.62-13.44-12.59-19.64c-7.77,0.53-15.44,0.79-23.04,1.61c-34.47,3.74-67.54,12.34-93.86,36.08
			c-27.59,24.88-47.89,55.32-60.27,90.64c-1.09,3.12-1.21,6.58-1.79,9.89c-1.06,0-2.12,0-3.17,0c-3.41-5.08-6.82-10.16-10.23-15.23
			c0.07-1.32,0.14-2.64,0.21-3.97c1.22-1.19,2.88-2.17,3.6-3.62c3.39-6.85,6.24-13.98,9.8-20.75
			c26.23-49.94,64.25-84.9,121.88-93.86c18.38-2.86,37.04-3.9,56.03-5.82c-0.88-3.8-1.9-8.17-2.92-12.54
			c-0.15-1.37-0.31-2.74-0.46-4.11c0.81-11.52,1.63-23.04,2.44-34.56c0.2-1.22,0.41-2.43,0.61-3.65c1.02-1.62,2.04-3.24,3.06-4.86
			c0.08,10.39-1.9,20.06-2.32,29.79c-1.7,38.91,16.82,66.67,59.7,66.99c1.79-0.15,3.58-0.3,5.38-0.45
			c28.03-1.54,52.17-13.45,75.22-28.25c1.34-0.75,2.67-1.51,4.01-2.26c13.76-9.25,27.52-18.51,41.74-28.08
			c-1.55-11.09-3.03-21.65-4.5-32.21c-0.36-1.28-0.72-2.56-1.09-3.84c-4.1-27.3-12.06-53.42-23.99-78.32
			c-0.59-1-1.17-2.01-1.76-3.01c-1.81-4.59-3.62-9.17-5.63-14.25c-20.26,11.22-40.94,16.72-62.79,11.73
			c-13.86-3.17-27.13-8.91-40.66-13.5c-1.07-0.63-2.13-1.26-3.2-1.89c-11.94-11.03-23.88-22.06-35.83-33.09
			c-0.85-1.38-1.7-2.76-2.54-4.14c-3.23-7.04-6.45-14.08-9.68-21.12c-0.64-0.45-1.28-0.89-1.91-1.34
			c-6.2,0.42-12.41,0.85-18.61,1.27c-0.01-0.93-0.01-1.86-0.02-2.79c28.04-3.29,55.87-1.76,83.56,3.42
			c-0.03,0.89-0.05,1.79-0.08,2.68c-13.31-1.54-26.62-3.07-40.86-4.71c27.22,47.54,76.87,73.75,121.66,45.2
			c-3.05-4.74-6.11-9.48-9.16-14.22c0.73-0.69,1.46-1.38,2.2-2.07c9.71,9.78,19.42,19.55,29.13,29.33
			c24.19,27.9,48.42,55.76,72.54,83.72c4.07,4.72,7.64,9.87,11.6,15.01c11.99-5.1,22.67-10.81,26.33-25.03
			c1.67-6.5,6.14-12.29,9.44-18.58c11.43,4.99,5.42,13.42,6.27,19.21c10.66-3.22,21.11-6.47,31.66-9.4
			c1.02-0.28,2.62,1.49,5.74,3.42c-8.82,6.84-16.65,12.91-24.45,18.97c10.46,2.13,20.67,3.93,30.72,6.36
			c5.32,1.29,9.59,4.18,6.85,12.09c1.95,1.16,4.36,2.58,7.38,4.38c-8.89,11.49-19.72,3-28.49,6.31c3.37,3.12,6.98,6.46,11.92,11.03
			c-14.89,6.54-23.65-5.1-36.1-6.5c-5.16,4.77-11.07,10.23-17.32,16.01c13.68,13.51,27.27,24.99,45.78,28.32
			c14.33,2.58,26.96-2.05,38.33-10.45c7.29-5.38,14.27-11.2,21.39-16.82C942.51,1231.1,943.18,1231.76,943.85,1232.43z
			 M793.34,1283.26c-16.21,19.7-32.43,39.39-48.6,59.12c-0.88,1.07-1.68,2.41-1.93,3.74c-2.91,15.3-3.22,30.59,2.74,45.24
			c4.96,12.19,14.98,15.04,27.08,8.35c0.12-39.77,7.53-78.27,22.08-115.4c0.18-0.86,0.35-1.73,1.02-5
			C794.06,1282.07,793.7,1282.66,793.34,1283.26z M752.61,1225.44c16.45-10.37,33.35-21.01,50.88-32.06
			c-17.16-22.9-33.45-45.94-61.35-57.71c-5.47,8.76-4.62,16.82-2.96,24.93C743.57,1181.97,748.03,1203.32,752.61,1225.44z
			 M796.66,1202.52c6.44,7.71,12.62,15.12,18.8,22.52c-0.69,0.73-1.38,1.45-2.07,2.18c4.25,2.61,8.49,5.22,12.31,7.56
			c3.45-3.28,6.16-5.77,8.77-8.36c2.82-2.8,5.43-5.82,8.33-8.53c10.47-9.8,11.47-9.83,24.7-3.94c4.72,2.1,9.68,3.66,14.53,5.46
			c0.32-0.89,0.63-1.79,0.95-2.68c-8.57-4-17.15-8-25.72-12c0.25-0.65,0.5-1.31,0.75-1.96c13.92,0.85,27.83,1.71,41.75,2.57
			c0.1-0.8,0.2-1.6,0.3-2.4c-14.24-7.83-30.85-5.01-46.26-7.55c0.14-0.98,0.27-1.96,0.41-2.94c13.96,0.86,27.91,1.72,41.87,2.59
			c0.11-0.97,0.21-1.95,0.32-2.92c-13.51-8.18-29.89-5.69-46.13-9.67c10.65-7.54,19.7-13.95,30.74-21.77
			C864.58,1163.07,822.3,1184.45,796.66,1202.52z M702.66,1083.36c-42.94,23.03-89.83,13.26-129.44-48.61c-4.4,0-8.74,0-13.2,0
			c17.17,55.83,100,95.18,148.32,58.48C706.54,1090.13,704.74,1086.98,702.66,1083.36z M809.37,1226.34
			c0.04-7.8-5.98-14.27-13.54-14.54c-7.93-0.29-14.43,6.13-14.53,14.36c-0.1,7.88,5.75,14.15,13.48,14.43
			C802.83,1240.9,809.33,1234.55,809.37,1226.34z M843.59,1171.01c0.68-5.86,1.38-11.84,2.08-17.83c-0.94-0.2-1.88-0.41-2.82-0.61
			c-3.45,7.5-6.89,15-11.26,24.51C836.53,1174.57,839.24,1173.2,843.59,1171.01z M796.14,1278.75c-0.18,0.19-0.5,0.37-0.5,0.57
			c-0.01,0.19,0.3,0.4,0.47,0.6c0.18-0.19,0.5-0.37,0.5-0.57C796.62,1279.16,796.31,1278.95,796.14,1278.75z"/>
		<path fill="#1D1D1D" d="M334.57,1283.4c0-19.48,0-38.96,0-60.52c-11.46-16.69-24.31-35-36.72-53.59
			c-20.31-30.41-39.68-61.39-53.32-95.52c-1.99-4.97-3.78-10.08-5.01-15.28c-4.21-17.87,7.79-30.19,25.97-27.05
			c16.41,2.83,30.98,10.13,43.08,20.99c22.55,20.24,44.1,41.61,66.14,62.42c1.58,1.5,3.85,2.27,5.79,3.38
			c0.66,0.48,1.32,0.96,1.98,1.44c-8.58,15.08-17.16,30.15-25.75,45.22c-0.57,1.59-1.14,3.19-1.71,4.79
			c-4.67,16.22-9.33,32.44-14,48.65c-0.42,1.29-0.83,2.58-1.25,3.87c-0.8,20.4-1.6,40.79-2.4,61.19
			C336.44,1283.39,335.51,1283.4,334.57,1283.4z M345.09,1112.03c-5.64-15.38-60.22-65.48-69.83-65.18
			C298.11,1068.17,322.07,1090.54,345.09,1112.03z"/>
		<path fill="#FDCE31" d="M1296.49,1713.69c-26.38-0.44-47.77-14.95-53.21-37.17c-3.83-15.67-1.7-31.16,5.15-45.62
			c11.18-23.59,28.39-40.99,54.17-48.15c21.24-5.9,39.88,0.44,51.95,18.95c14.94,22.91,19.14,48.07,8.33,73.86
			c-9.33,22.25-28.7,31.93-51.22,36.29C1306.67,1712.82,1301.55,1713.1,1296.49,1713.69z"/>
		<path fill="#1D1D1D" d="M698.01,1454.27c-0.5,1.32-1,2.64-1.51,3.96c0.64-0.39,1.29-0.78,1.93-1.17
			c12.62,20,26.03,39.56,37.51,60.19c5.34,9.59,8.35,21.07,9.92,32.04c2.9,20.31-8.67,33.29-29.12,32.35
			c-11.87-0.55-24.21-2.96-35.25-7.31c-24.32-9.57-45.7-24.47-65.8-41.14c0.12-0.85,0.24-1.7,0.36-2.56
			c2.47-1.12,5.16-1.91,7.38-3.4c21.05-14.03,39.16-31.31,55.57-50.48c1.37-1.61,3.42-2.63,5.16-3.93c1.8,2.9,3.25,6.1,5.45,8.66
			c17.32,20.17,35.27,39.92,40.28,67.44c0.05,0.25,0.96,0.34,3.36,1.12c-1.37-6.21-1.88-11.71-3.8-16.67
			c-8.76-22.62-24.55-40.44-40.64-57.98c-1.13-1.24-3.05-1.76-4.6-2.61c4.12-6.76,8.24-13.51,12.35-20.27
			C697.05,1453.11,697.53,1453.69,698.01,1454.27z"/>
		<path fill="#1F1F1F" d="M1215.7,882.05c24.12-59.66,47.5-117.51,71.13-175.95c3.53,0.33,6.37,0.6,10.49,0.99
			c-0.59,4.25-0.61,7.55-1.54,10.58c-20.61,66.98-41.33,133.92-61.98,200.89c-2.14,6.94-5.61,12.49-13.42,13.61
			c-8.17,1.17-13.26-3.09-17.16-9.82c-11.34-19.6-22.98-39.02-34.29-58.64c-4.78-8.3-2.78-17.16,4.3-21.6
			c7.83-4.91,16.28-2.87,21.87,5.91C1201.9,858.69,1208.24,869.66,1215.7,882.05z"/>
		<path fill="#202020" d="M1290.06,1175.24c8.11,3.66,7.55,7.91,5.93,13.1c-18.87,60.44-37.58,120.93-56.34,181.41
			c-2.34,7.56-3.95,15.49-7.4,22.51c-2.11,4.3-6.52,8.75-10.91,10.34c-6.16,2.23-12.38-0.44-16.04-6.55
			c-12.51-20.89-25.12-41.73-37.26-62.84c-4.38-7.61-1.41-16.49,5.74-20.65c7.53-4.38,16.05-2.16,21.14,5.99
			c6.84,10.95,13.34,22.12,20.81,34.56c11.15-27.72,21.62-53.84,32.16-79.94c11.84-29.34,23.67-58.68,35.72-87.93
			C1285.11,1181.64,1287.88,1178.57,1290.06,1175.24z"/>
		<path fill="#202020" d="M1215.7,1110.25c8.42-20.8,16.02-39.53,23.59-58.27c14.81-36.67,29.54-73.37,44.5-109.97
			c1.36-3.34,4.12-6.11,6.47-9.5c3.1,2.14,4.9,3.38,7.68,5.3c-2.02,6.95-3.95,13.94-6.09,20.87
			c-19.28,62.35-38.65,124.66-57.84,187.04c-2.32,7.54-5.4,13.61-14.21,14.76c-8.68,1.13-12.93-4.38-16.68-10.67
			c-11.31-18.96-22.63-37.91-33.76-56.98c-5.36-9.18-3.37-18.22,4.56-22.74c8.07-4.59,16.52-1.87,22.23,7.44
			C1202.43,1087.79,1208.49,1098.17,1215.7,1110.25z"/>
		<path fill="#342F1D" d="M943.85,1232.43c-0.67-0.66-1.34-1.33-2.01-1.99c14.21-15.81,28.21-31.81,42.69-47.38
			c12.17-13.09,16.52-29.39,20.55-46c1.1-4.52,2.83-8.88,4.6-14.3c11.73,6.19,6.33,16.1,8.18,24.47
			c10.78-9.79,21.3-19.35,31.89-28.96c4.49,3.58,7.44,5.94,11.06,8.83c-1.44,13.24-13.14,20.4-19.15,30.91
			c-0.22,0.65-0.45,1.29-0.93,2.66c1.32-0.65,1.95-0.96,2.57-1.28c4.57-2.72,8.97-5.78,13.76-8.03c2.8-1.31,6.22-1.32,9.36-1.92
			c0.02,1.99,0.03,3.99,0.04,5.98c-1.86,1.73-3.47,3.92-5.63,5.12c-16.11,8.89-23.51,24.51-31.86,39.71
			c-28.33,51.59-59.21,101.48-100.17,144.3c-22.78,23.81-49.09,42.84-78.78,57.18c-4.62,1.85-9.24,3.69-13.86,5.54
			c-0.01-1.05-0.39-2.82,0.02-3.04c6.31-3.24,12.79-6.14,19.1-9.38c41.56-21.39,74.26-52.85,102.32-89.68
			c27.96-36.71,51.83-76,73.37-116.71c5.52-10.44,11.4-20.22,21.66-26.64c1.6-1.2,3.21-2.4,4.81-3.6c0.8-0.92,1.61-1.84,2.41-2.76
			c0.38-0.31,0.76-0.61-0.6,0.49c0.82-1.53,0.59-1.1,0.36-0.67c-1.21,0.47-2.41,0.94-3.62,1.42c-1.71,1.13-3.43,2.27-5.14,3.4
			c-4.43,1.96-8.87,3.93-15.53,6.87c1.98-17.52,18.09-24.12,19.73-38.8c-8.17,8.99-16.33,17.98-24.5,26.96
			c-0.75-0.61-1.51-1.22-2.26-1.82c7.46-9.01,14.93-18.03,22.39-27.04c-0.72-0.7-1.43-1.4-2.15-2.1
			c-11.67,10.98-23.34,21.96-36.19,34.05c0.55-10.23,1.02-19.08,1.49-27.92c-0.9-0.15-1.81-0.3-2.71-0.45
			c-5.76,17.47-7.4,36.63-19.9,51.34c-13,14.76-26.01,29.53-39.01,44.29l0.12-0.11c-0.55,0.59-1.1,1.18-1.66,1.77
			C948.42,1228.89,946.14,1230.66,943.85,1232.43z"/>
		<path fill="#222222" d="M417.85,1078.39c13.54-8.56,27.08-17.13,40.61-25.69c0.71,0.6,1.42,1.19,2.14,1.79
			c-10.77,6.27-12.29,17.46-13.31,27.94c-1.37,14.07-0.78,28.33-1.13,42.51c-0.14,5.61-2.13,10.33-8.38,11.06
			c-6.63,0.78-9.03-3.97-9.8-9.39c-1.32-9.26-1.59-18.71-3.42-27.86c-1.18-5.91-4.35-11.42-6.63-17.11
			C417.91,1080.56,417.88,1079.48,417.85,1078.39z"/>
		<path fill="#1F1F1F" d="M230.18,1091.26c0.17,12.25-10.18,22.88-22.41,23.04c-12.03,0.15-22.29-9.67-22.66-21.71
			c-0.39-12.73,9.34-23.24,21.78-23.52C219.18,1068.8,230.02,1079.12,230.18,1091.26z"/>
		<path fill="#535353" d="M372.13,1458.86c-46.54-38.76-78.9-87.34-99.62-143.93C296.34,1369.43,327.67,1418.71,372.13,1458.86z"/>
		<path fill="#454135" d="M507.45,1472.38c-1.35,0.67-2.69,1.34-4.04,2.01c-32.54-3.84-61.05-17.38-85.3-38.7
			c-13.92-12.24-25.29-27.38-37.81-41.22c1.06,0,2.12,0,3.17,0c13.77,14.22,26.55,29.59,41.54,42.38
			C448.57,1456.97,477,1467.41,507.45,1472.38z"/>
		<path fill="#535353" d="M373.31,1459.71c32.58,26.27,69.04,44.76,108.99,56.57C440.74,1507.47,404.49,1488.33,373.31,1459.71z"/>
		<path fill="#474747" d="M334.57,1283.4c0.93,0,1.87-0.01,2.8-0.01c2.27,10.78,3.21,22.08,7.1,32.24
			c7.74,20.21,17.11,39.8,25.8,59.65c-0.07,1.32-0.14,2.64-0.21,3.97C350.29,1350.24,337.95,1318.48,334.57,1283.4z"/>
		<path fill="#535353" d="M118.86,878.97c8.15,33.02,30.67,52.78,62.88,66.27C155.17,945.42,116.57,903.56,118.86,878.97z"/>
		<path fill="#474747" d="M460.6,1054.49c-0.71-0.6-1.42-1.19-2.14-1.79c24.27-12.51,50.41-17.78,77.36-19.93
			c0.01,0.93,0.01,1.86,0.02,2.79C509.94,1038.61,484.67,1044.16,460.6,1054.49z"/>
		<path fill="#454135" d="M619.3,1038.87c0.03-0.89,0.05-1.79,0.08-2.68c1.93-0.1,3.87-0.2,6.11-0.32
			c6.39-19.08,12.82-38.07,19.01-57.14c0.51-1.56-0.62-3.65-0.98-5.5c0.9-0.24,1.79-0.48,2.59-0.69c0.82,2.1,1.46,3.73,2.09,5.35
			c-7.57,23.01-15.14,46.03-22.72,69.07C622.73,1043.37,621.02,1041.12,619.3,1038.87z"/>
		<path fill="#535353" d="M429.23,1512.98c-28.58-1.38-51.17-16.33-72.19-34.53c11.53,7.09,22.59,15.18,34.73,21
			C403.68,1505.16,416.7,1508.56,429.23,1512.98z"/>
		<path fill="#252420" d="M352.14,1057.88c-2.38,1.82-5.43,5.83-9.15,6.6c-5.8,1.2-10.48-3.2-9.73-8.72
			c0.47-3.53,4.94-8.25,8.5-9.24C347.43,1044.96,350.95,1049.22,352.14,1057.88z"/>
		<path fill="#474747" d="M417.85,1078.39c0.03,1.08,0.06,2.16,0.09,3.25c-11.82,12.67-23.64,25.35-35.46,38.02
			c-0.66-0.48-1.32-0.96-1.98-1.44C392.95,1104.95,405.4,1091.67,417.85,1078.39z"/>
		<path fill="#535353" d="M179.03,693.47c15.23-13.54,30.65-21.26,49.59-23.96C212.26,677.42,196.8,684.89,179.03,693.47z"/>
		<path fill="#535353" d="M584.01,781.84c9.85,8.74,19.38,17.19,28.01,24.85C605.29,807.96,589.64,795.24,584.01,781.84z"/>
		<path fill="#474747" d="M698.01,1454.27c-0.48-0.58-0.96-1.16-1.44-1.74c5.5-9.72,11-19.43,16.5-29.15
			c0.62,0.48,1.24,0.96,1.86,1.44C709.29,1434.64,703.65,1444.46,698.01,1454.27z"/>
		<path fill="#474747" d="M616.06,1530.65c-0.12,0.85-0.24,1.7-0.36,2.56c-7.21-5.92-14.41-11.84-21.62-17.76
			c1.6-0.52,3.19-1.05,4.79-1.57C604.61,1519.47,610.34,1525.06,616.06,1530.65z"/>
		<path fill="#342F1D" d="M802.82,1418.27c0.36-1.07,0.47-2.88,1.13-3.1c9-3.12,18.06-6.07,27.17-8.87c0.64-0.2,1.74,1.1,2.62,1.71
			C823.43,1411.42,813.12,1414.85,802.82,1418.27z"/>
		<path fill="#342F1D" d="M778.19,1423.12c-0.02-0.85-0.04-1.7-0.06-2.55c6.02-1.26,12-2.76,18.07-3.65
			c2.16-0.32,4.53,0.83,6.81,1.32C794.74,1419.86,786.46,1421.49,778.19,1423.12z"/>
		<path fill="#E2E2E2" d="M719.93,880c-0.4-1.52-0.79-3.03-1.19-4.55c0.87,0.01,1.74,0.03,2.6,0.04
			C720.87,876.99,720.4,878.5,719.93,880z"/>
		<path fill="#FCFBF9" d="M722.27,1092.4c-9.71-9.78-19.42-19.55-29.13-29.33c-1.24-1.8-2.47-3.6-3.4-4.95
			c1.02-5.54,1.93-10.46,2.83-15.38c4.09-15.92,8.17-31.85,12.34-48.09c3.69,0.32,6.74,0.59,9.78,0.85
			C717.21,1027.81,719.74,1060.11,722.27,1092.4z"/>
		<path fill="#FEFCF4" d="M1382.18,968.5c-1.79-2.63-4.51-4.79-4.55-6.98c-0.32-21.16-0.19-42.33-0.19-64.36
			c3.25-0.67,5.75-1.19,7.93-1.64C1392.07,906.24,1390.22,962.56,1382.18,968.5z"/>
		<path fill="#FACB2F" d="M619.3,1038.87c1.71,2.25,3.43,4.5,6.18,8.11c7.58-23.04,15.15-46.06,22.72-69.07
			c1.68-5.04,3.36-10.08,5.04-15.11c-0.96,0.34-1.92,0.67-2.88,1.01c-2.94-5.03-7.09-9.79-8.31-15.21c-0.61-2.71,4.12-6.63,6.43-10
			c-1.31,4.86-2.62,9.73-3.93,14.59c1.01,0.23,2.02,0.47,3.02,0.7c0.57-2.16,1.14-4.31,1.84-6.92c2.93,2.11,5.45,3.92,7.97,5.73
			c0.52-0.51,1.04-1.01,1.56-1.52c-2.13-2.69-4.27-5.38-6.15-7.75c0.65-2.82,1.23-5.38,1.82-7.93c2.56,2.53,5.51,4.77,7.55,7.67
			c1.99,2.82,3.05,6.31,5.43,11.49c28.34-15.45,44.29-37.94,51.82-70c5.94,11.32,11.83,20.73,15.94,30.87
			c4.51,11.15,7.29,23.06,23.57,19.38c-1.45,8.85-3.06,9.38-14.55,5.33c0.8,17.05,5.9,35.61-12.54,46.59
			c-16.51,9.82-32.7,4.62-50.84-4.9c10.52,20.92,15.52,40.26,8.88,60.88c-1.41,5.17-2.82,10.34-4.33,15.86
			c1.85,2.22,3.63,4.35,5.4,6.48c3.06,4.74,6.11,9.48,9.17,14.22c-44.79,28.54-94.44,2.34-121.66-45.2
			C592.68,1035.8,605.99,1037.34,619.3,1038.87z M735.58,925.24c-10.14-7.95-24.96-5.11-29.1,5.9c5.79,7.01,13.42,5.75,20.81,3.74
			C731.84,933.64,736.75,931.7,735.58,925.24z M731.19,971.81c-6.13-6.08-12.2-12.1-18.53-18.38c-5.15,5.74-5.9,11.49-0.74,17.38
			C716.8,976.38,723.26,976.71,731.19,971.81z"/>
		<path fill="#F6C72E" d="M400.49,743.02c-7.14-0.11-13.51-6.74-13.25-13.79c0.26-6.94,6.26-12.75,13.28-12.85
			c7.24-0.1,13.85,6.26,13.82,13.3C414.3,736.66,407.59,743.13,400.49,743.02z"/>
		<path fill="#F6C72E" d="M443.45,717.25c-4.51,3.23-7.02,6.43-9.25,6.25c-2.47-0.2-4.69-3.5-7.02-5.45
			c2.21-2.35,4.1-5.94,6.75-6.65C435.84,710.9,438.77,714.22,443.45,717.25z"/>
		<path fill="#342F1D" d="M654.61,935.49c-0.59,2.55-1.17,5.11-1.82,7.93c1.89,2.38,4.02,5.06,6.15,7.75
			c-0.52,0.51-1.04,1.01-1.56,1.52c-2.52-1.81-5.04-3.63-7.97-5.73c-0.69,2.61-1.26,4.77-1.84,6.92c-1.01-0.23-2.02-0.47-3.02-0.7
			c1.31-4.86,2.62-9.73,3.93-14.59c0,0-0.15,0.1-0.15,0.1c0.61-0.9,1.22-1.81,1.83-2.71C651.65,935.82,653.13,935.66,654.61,935.49z
			"/>
		<path fill="#454135" d="M690.94,1065.15c-1.77-2.13-3.55-4.26-5.4-6.48c1.51-5.52,2.92-10.69,4.33-15.86
			c0.9-0.02,1.8-0.05,2.7-0.07c-0.9,4.92-1.81,9.84-2.83,15.38c0.93,1.35,2.16,3.15,3.4,4.95
			C692.41,1063.76,691.67,1064.45,690.94,1065.15z"/>
		<path fill="#FACB2F" d="M650.16,935.98c-0.61,0.9-1.22,1.81-1.83,2.71c-0.1-0.48-0.21-0.97-0.32-1.52
			C648.73,936.77,649.45,936.38,650.16,935.98z"/>
		<path fill="#342F1D" d="M924.86,1397.04c49.05-39.29,77.44-92.21,99.11-149.62C1027.37,1278.84,955.44,1387.56,924.86,1397.04z"/>
		<path fill="#1D1D1D" d="M894.33,1347.4c-2.02,3.54-2.86,7.07-5.08,8.57c-11.39,7.72-22.94,15.28-34.85,22.16
			c-5.7,3.29-11.5,1.25-14.15-4.92c-2.65-6.15,0.23-10.52,6.03-13.89c9.96-5.78,19.35-12.56,29.39-18.2
			c3.27-1.84,8.11-2.67,11.64-1.72C890.01,1340.12,891.8,1344.34,894.33,1347.4z"/>
		<path fill="#FEFCF4" d="M952.23,1225.47c13-14.76,26.01-29.53,39.01-44.29c4.58,21.45-13.59,31.4-20.81,45.65
			C962.84,1226.26,957.54,1225.87,952.23,1225.47z"/>
		<path fill="#252420" d="M822.01,1370.76c6.15,0.15,10.89,5.07,10.53,10.94c-0.36,5.95-6.78,10.8-14.2,10.75
			c-6.04-0.04-10.76-5.05-10.39-11.02C808.32,1375.21,814.42,1370.58,822.01,1370.76z"/>
		<path fill="#342F1D" d="M1020,1160.56c0.42,1.86,0.83,3.72,1.31,5.84c4.44,1.41,8.98,2.86,13.52,4.3
			c-0.21,0.83-0.41,1.67-0.62,2.5c-4.71-0.8-9.43-1.6-12.42-2.11c-6.49,2.85-11.65,5.12-16.82,7.39c-0.65-1.06-1.3-2.11-1.95-3.17
			c8.2-2.16,15.22-5.42,14.43-15.98C1018.3,1159.74,1019.15,1160.15,1020,1160.56z"/>
		<path fill="#FEFCF4" d="M963.09,1235.75c-3.52,3.29-5.86,7.01-9.01,7.93c-2.33,0.68-5.72-2.29-8.76-3.69
			C950.57,1230.53,953.32,1229.72,963.09,1235.75z"/>
		<path fill="#FEFCF4" d="M950.7,1227.12c0.55-0.59,1.1-1.18,1.66-1.77C951.8,1225.95,951.25,1226.53,950.7,1227.12z"/>
		<path fill="#FDFDFD" d="M382.47,1119.66c11.82-12.67,23.64-25.35,35.46-38.02c2.28,5.69,5.45,11.2,6.63,17.11
			c1.83,9.15,2.1,18.59,3.42,27.86c0.77,5.42,3.17,10.16,9.8,9.39c6.25-0.73,8.24-5.45,8.38-11.06c0.35-14.18-0.24-28.43,1.13-42.51
			c1.02-10.48,2.54-21.67,13.31-27.94c24.07-10.32,49.34-15.88,75.24-18.92c6.2-0.42,12.41-0.85,18.61-1.27
			c0.64,0.45,1.28,0.89,1.91,1.34c3.23,7.04,6.45,14.08,9.68,21.11c-2.18,0.51-4.4,0.92-6.54,1.58
			c-11.3,3.43-22.81,6.35-33.72,10.73c-3.27,1.31-6.42,6.64-6.74,10.37c-0.26,2.94,3.91,6.27,6.32,9.74
			c-1.35,1.07-3.94,3.22-6.62,5.25c-5.73,4.34-10.73,9.43-7.27,17.11c3.52,7.8,10.73,8.4,18.2,6.71c7.01-1.59,13.96-3.39,21.68-5.29
			c-2.5,9.1-4.35,17.56,4.34,22.97c8.65,5.38,16.89,2.2,24.57-2.97c1.64-1.1,3.12-2.44,4.62-3.74
			c10.48-9.13,18.09-20.23,22.75-33.33c13.53,4.59,26.8,10.33,40.66,13.5c21.85,4.99,42.53-0.5,62.79-11.73
			c2.01,5.08,3.82,9.67,5.63,14.25c-12.76,4.74-25.88,8.72-38.17,14.48c-8.04,3.77-15.45,9.48-22.1,15.48
			c-6.49,5.86-3.97,12.92,4.6,14.95c3.35,0.79,6.89,0.84,8.79,1.05c-1.97,5.12-6.2,10.69-4.92,14.3c1.26,3.55,7.89,6.47,12.57,7.25
			c10.22,1.7,20.7,1.87,31.03,2.67c-2.58,10.55-0.35,14.81,10.66,15.92c8.01,0.8,16.24-0.55,24.37-0.94
			c1.48,10.56,2.95,21.12,4.5,32.22c-14.22,9.57-27.98,18.82-41.74,28.08c-5.04-20.41-8.51-22.99-24.06-17.86
			c-13.66-8.99-17.27-8-24.5,6.75c-1.57,3.2-3.11,6.41-4.5,9.28c-5.21-4.97-9.59-10.35-15.09-14.1c-8.59-5.87-16.66-3.07-20.53,6.65
			c-5.59,14.01-5.67,27.68,4.07,40.25c-42.89-0.32-61.4-28.08-59.7-66.99c0.42-9.73,2.4-19.4,2.32-29.79
			c-1.02,1.62-2.04,3.24-3.06,4.85c-16.12,0.46-32.27,0.59-48.36,1.56c-6.1,0.37-12.55,3.54-12.49,10.42
			c0.03,3.83,4.69,7.63,7.27,11.44c-2.17,2.59-5.43,6.48-8.31,9.92c3.92,10.14,11.03,10.59,18.74,10.26
			c13.52-0.57,27.04-0.87,40.57-1.29c1.02,4.37,2.03,8.74,2.92,12.54c-18.99,1.92-37.65,2.96-56.03,5.82
			c-57.62,8.96-95.64,43.92-121.88,93.86c-3.55,6.76-6.4,13.89-9.8,20.75c-0.71,1.44-2.37,2.42-3.6,3.62
			c-8.7-19.85-18.06-39.44-25.8-59.65c-3.89-10.16-4.83-21.46-7.1-32.24c0.8-20.4,1.6-40.79,2.4-61.19
			c13.36-2.32,26.88-4,39.99-7.31c4.8-1.21,10.28-5.51,12.38-9.87c1.65-3.42-1.43-9.12-2.5-14.29c1.3-0.52,3.97-1.43,6.5-2.63
			c6.11-2.87,10.4-7.36,9.57-14.49c-0.77-6.68-5.94-9.83-12-9.87c-12.32-0.07-24.65,0.72-36.98,1.15
			C365.31,1149.82,373.89,1134.74,382.47,1119.66z"/>
		<path fill="#FCCC2F" d="M507.45,1472.38c-30.45-4.97-58.87-15.41-82.43-35.52c-14.99-12.79-27.77-28.17-41.54-42.38
			c0.57-3.3,0.69-6.77,1.79-9.89c12.39-35.32,32.69-65.75,60.27-90.64c26.32-23.74,59.4-32.34,93.86-36.08
			c7.6-0.82,15.27-1.08,23.04-1.61c3.98,6.2,7.76,12.11,12.59,19.64c-7.7,3.08-15.13,6.26-22.71,9.03
			c-7.18,2.63-14.65,4.51-21.73,7.36c-4.75,1.91-8.95,6.07-6.29,11.24c1.84,3.58,6.82,7.59,10.53,7.73
			c6.88,0.27,13.99-1.73,20.8-3.54c21.04-5.58,40.96-15.01,63.35-15.98c12.88-0.56,26.03-2.7,38.38-6.38
			c30.39-9.07,55.85-27.48,81.42-45.5c11.82-8.33,23.9-16.27,37.34-25.39c0.65,4.8,1.42,8.16,1.48,11.54
			c0.13,7.19,3.05,12.74,9.34,16.09c7.65,4.08,15.54,7.71,23.53,11.64c-31.81,42.73-63.23,85.76-103.24,121.15
			c-26.12,23.11-53.49,44.95-81.53,65.69C590.77,1466.41,550.88,1476.71,507.45,1472.38z M729.78,1295.03
			c0.44-3.46,1.11-5.01,0.71-6.21c-2.6-7.77,0.96-12.2,7.5-15.75c4.97-2.7,10.09-5.63,13.98-9.6c2.41-2.46,2.64-7.04,3.84-10.67
			c-3.81-0.92-7.63-2.56-11.42-2.49c-2.47,0.05-4.98,2.48-7.31,4.07c-12.91,8.77-25.96,17.36-38.52,26.6
			c-3.11,2.29-7.25,8.26-6.29,9.98c2.16,3.9,7.24,8.72,11.05,8.65C712.3,1299.47,721.26,1296.67,729.78,1295.03z M525.3,1438.08
			c0.1-0.32,0.2-0.64,0.29-0.96c3.93-0.38,7.88-0.64,11.79-1.16c6.9-0.91,11.26-4.63,10.13-11.89c-1.13-7.21-6.6-8.52-13.28-8.81
			c-10.29-0.44-20.63-1.48-30.76-3.28c-6.71-1.19-12.13-0.83-14.67,6.05c-2.61,7.08,1.4,11.78,7.74,13.59
			C505.98,1434.32,515.7,1435.98,525.3,1438.08z M743.83,1293.63c4.03-4.65,6.4-7.38,8.86-10.22c-5.87-7.64-10.55-5.37-16.79,0.46
			C738.21,1286.71,740.42,1289.44,743.83,1293.63z"/>
		<path fill="#FAFAFA" d="M616.06,1530.65c-5.73-5.59-11.46-11.18-17.19-16.77c10.23-1.59,15.99-9,21.27-16.76
			c3-4.41,5.35-9.28,7.83-14.04c4.99-9.59,12.54-14.83,23.6-15.29c15.03-0.62,30.93-11.31,24.71-31.91
			c-1.27-4.19-0.58-8.97-0.83-14.21c4.12-2.56,8.08-5.17,12.18-7.54c15.92-9.2,26.23-21.75,30.7-40.46
			c2.04-8.52,11.2-15.35,18.11-22.28c-3.62,25.62-13.38,48.85-23.38,71.99c-5.5,9.72-11,19.43-16.5,29.15
			c-4.12,6.76-8.24,13.51-12.35,20.27c0,0-0.04,0.04-0.04,0.04c-1.73,1.3-3.78,2.33-5.16,3.93c-16.41,19.17-34.51,36.45-55.57,50.48
			C621.22,1528.74,618.54,1529.54,616.06,1530.65z"/>
		<path fill="#FDFDFB" d="M568.59,1060.89c11.94,11.03,23.88,22.06,35.83,33.09c-5.63,15.37-15,27.93-28.58,37.1
			c-8,5.4-16.75,4.89-20.84-0.62c-4.39-5.92-2.22-14.73,5.18-20.95c2.1-1.76,4.24-3.47,6.36-5.2c-0.45-0.63-0.91-1.27-1.36-1.9
			c-2.54,0.97-5.06,2.02-7.63,2.9c-8.57,2.94-17.01,6.41-25.79,8.52c-6.4,1.54-13.78,2.95-18.01-5.96
			c4.52-14.27,18.71-16.48,32.16-22.61c-9.55-1.46-16.73-2.56-23.91-3.66c-0.17-1.22-0.34-2.45-0.51-3.67
			c3.13-2.52,5.88-6.27,9.45-7.34C543.33,1066.85,556.01,1064.04,568.59,1060.89z"/>
		<path fill="#FDFDFB" d="M718.45,1114.9c11.93,24.9,19.9,51.02,23.99,78.32c-10.5,2.01-21.03,4.32-33.17-3.73
			c4.55-4.5,8.27-8.18,12.84-12.7c-18.54,0.59-36.48,3.31-55.17-4.1c8.33-18.15,25.95-12.68,38.81-17.61
			c-16.16-4.1-33.43,3.14-50.32-5.32c7-11.62,16.86-17.01,27.27-21.34C694.45,1123.53,706.52,1119.37,718.45,1114.9z"/>
		<path fill="#FAFAFA" d="M752.61,1225.44c-4.59-22.12-9.04-43.47-13.43-64.83c-1.66-8.11-2.51-16.17,2.96-24.93
			c27.9,11.77,44.19,34.81,61.35,57.71C785.96,1204.43,769.07,1215.07,752.61,1225.44z"/>
		<path fill="#F6C72E" d="M796.66,1202.52c25.64-18.07,67.92-39.45,84.35-41.85c-11.04,7.82-20.09,14.23-30.74,21.77
			c16.24,3.98,32.61,1.49,46.13,9.67c-0.11,0.97-0.21,1.95-0.32,2.92c-13.96-0.86-27.91-1.72-41.87-2.59
			c-0.14,0.98-0.27,1.96-0.41,2.94c15.42,2.54,32.03-0.28,46.26,7.55c-0.1,0.8-0.2,1.6-0.3,2.4c-13.92-0.86-27.83-1.71-41.75-2.57
			c-0.25,0.65-0.5,1.31-0.75,1.96c8.57,4,17.15,8,25.72,12c-0.32,0.89-0.63,1.79-0.95,2.68c-4.85-1.8-9.81-3.36-14.53-5.46
			c-13.24-5.89-14.23-5.85-24.7,3.94c-2.9,2.71-5.51,5.73-8.33,8.53c-2.61,2.59-5.32,5.08-8.77,8.36
			c-3.82-2.35-8.07-4.95-12.31-7.56c0.69-0.73,1.38-1.45,2.07-2.18C809.28,1217.64,803.1,1210.24,796.66,1202.52z"/>
		<path fill="#FAFAFA" d="M794.7,1284.31c-14.56,37.12-21.96,75.63-22.08,115.4c-12.1,6.69-22.12,3.85-27.08-8.35
			c-5.96-14.65-5.65-29.94-2.74-45.24c0.25-1.33,1.06-2.67,1.93-3.74c16.17-19.73,32.39-39.42,48.6-59.12
			C793.79,1283.61,794.25,1283.96,794.7,1284.31z"/>
		<path fill="#FCFBF9" d="M702.28,1259.6c-23.05,14.8-47.18,26.71-75.22,28.25c-12.76-14.72-12.64-35.07,0.89-45.56
			c13.6,1.18,18.73,12.67,25.07,23.91c5.12-10.73,9.6-20.14,13.88-29.12c15.89,2.35,15.21,16.05,20.94,24.45
			c0.67-0.26,1.34-0.52,2.01-0.78c-1.27-5.78-2.55-11.57-3.85-17.5c6.12-4.31,10.67-2.56,13.27,3.25
			C701.06,1250.51,701.33,1255.21,702.28,1259.6z"/>
		<path fill="#F7F7F7" d="M702.66,1083.36c2.08,3.62,3.89,6.77,5.67,9.88c-48.31,36.7-131.15-2.65-148.32-58.48
			c4.47,0,8.81,0,13.2,0C612.82,1096.62,659.71,1106.4,702.66,1083.36z"/>
		<path fill="#FDFCF9" d="M560.64,1200.03c-0.81,11.52-1.63,23.04-2.44,34.55c-14.16,0.44-28.31,1.07-42.47,1.19
			c-3.78,0.03-7.58-1.5-12.45-2.54c6.6-15.97,21.8-11.15,33.37-17.2c-12.4-2.3-24.09,1.8-35.78-8.3c6.43-2.74,10.88-6.02,15.54-6.36
			C531.1,1200.33,545.89,1200.4,560.64,1200.03z"/>
		<path fill="#FCD247" d="M568.59,1060.89c-12.57,3.16-25.25,5.96-37.65,9.69c-3.56,1.07-6.32,4.82-9.45,7.34
			c0.17,1.22,0.34,2.45,0.51,3.67c7.18,1.1,14.35,2.2,23.91,3.66c-13.45,6.13-27.64,8.34-32.16,22.61
			c4.23,8.91,11.61,7.5,18.01,5.96c8.77-2.11,17.22-5.58,25.79-8.52c2.57-0.88,5.09-1.93,7.63-2.9c0.45,0.63,0.91,1.27,1.36,1.9
			c-2.12,1.73-4.26,3.44-6.36,5.2c-7.4,6.22-9.57,15.03-5.18,20.95c4.08,5.51,12.84,6.02,20.84,0.62
			c13.58-9.17,22.95-21.73,28.58-37.1c1.07,0.63,2.14,1.26,3.2,1.89c-4.67,13.1-12.28,24.2-22.75,33.33
			c-1.49,1.3-2.98,2.64-4.62,3.74c-7.67,5.18-15.92,8.36-24.57,2.97c-8.69-5.41-6.84-13.87-4.34-22.97
			c-7.71,1.89-14.67,3.7-21.68,5.29c-7.47,1.69-14.68,1.1-18.2-6.71c-3.47-7.68,1.54-12.77,7.27-17.11
			c2.68-2.03,5.27-4.17,6.62-5.25c-2.42-3.47-6.58-6.8-6.32-9.74c0.33-3.74,3.47-9.06,6.74-10.37c10.92-4.38,22.43-7.31,33.72-10.73
			c2.14-0.65,4.36-1.06,6.54-1.58C566.89,1058.13,567.74,1059.51,568.59,1060.89z"/>
		<path fill="#FCD247" d="M718.45,1114.9c-11.93,4.48-24,8.63-35.76,13.52c-10.4,4.32-20.26,9.72-27.27,21.34
			c16.89,8.46,34.16,1.22,50.32,5.32c-12.86,4.93-30.48-0.54-38.81,17.61c18.69,7.41,36.62,4.69,55.17,4.1
			c-4.56,4.51-8.29,8.2-12.84,12.7c12.15,8.06,22.67,5.75,33.17,3.73c0.36,1.28,0.73,2.57,1.09,3.85
			c-8.13,0.38-16.36,1.74-24.37,0.93c-11.01-1.11-13.25-5.36-10.66-15.92c-10.34-0.79-20.81-0.96-31.03-2.67
			c-4.68-0.78-11.31-3.71-12.57-7.25c-1.28-3.61,2.95-9.18,4.92-14.3c-1.9-0.21-5.43-0.26-8.79-1.05
			c-8.57-2.03-11.08-9.09-4.6-14.95c6.64-6,14.06-11.71,22.1-15.48c12.29-5.76,25.4-9.74,38.17-14.48
			C717.28,1112.89,717.86,1113.89,718.45,1114.9z"/>
		<path fill="#FCD247" d="M702.28,1259.6c-0.95-4.39-1.22-9.09-3.01-13.11c-2.6-5.8-7.15-7.56-13.27-3.25
			c1.31,5.93,2.58,11.72,3.85,17.5c-0.67,0.26-1.34,0.52-2.01,0.78c-5.73-8.4-5.05-22.1-20.94-24.45
			c-4.28,8.97-8.76,18.38-13.88,29.12c-6.34-11.23-11.47-22.72-25.07-23.91c-13.54,10.49-13.66,30.85-0.89,45.56
			c-1.79,0.15-3.58,0.3-5.37,0.45c-9.73-12.57-9.65-26.24-4.07-40.25c3.88-9.72,11.94-12.52,20.53-6.65
			c5.49,3.75,9.87,9.13,15.09,14.1c1.39-2.87,2.93-6.08,4.5-9.28c7.22-14.74,10.83-15.74,24.5-6.75
			c15.55-5.13,19.02-2.56,24.06,17.86C704.95,1258.1,703.61,1258.85,702.28,1259.6z"/>
		<path fill="#FCD247" d="M560.64,1200.03c-14.75,0.37-29.53,0.31-44.23,1.35c-4.66,0.33-9.11,3.62-15.54,6.36
			c11.7,10.1,23.38,5.99,35.78,8.3c-11.57,6.04-26.77,1.23-33.37,17.2c4.87,1.05,8.67,2.58,12.45,2.54
			c14.16-0.12,28.31-0.75,42.47-1.19c0.15,1.37,0.31,2.74,0.46,4.12c-13.52,0.42-27.05,0.72-40.57,1.29
			c-7.71,0.32-14.82-0.12-18.74-10.26c2.89-3.44,6.14-7.33,8.31-9.92c-2.58-3.81-7.24-7.61-7.27-11.44
			c-0.06-6.88,6.39-10.05,12.49-10.42c16.09-0.97,32.24-1.1,48.36-1.56C561.04,1197.6,560.84,1198.81,560.64,1200.03z"/>
		<path fill="#F1F1F1" d="M809.37,1226.34c-0.05,8.22-6.54,14.56-14.6,14.26c-7.73-0.29-13.58-6.55-13.48-14.43
			c0.11-8.24,6.6-14.65,14.53-14.36C803.4,1212.07,809.42,1218.54,809.37,1226.34z M802.08,1231.78
			c-2.52-7.53-4.14-12.36-6.24-18.63c-1.7,3.84-3.08,6.14-3.73,8.64c-0.69,2.66-1.93,6.63-0.7,7.98
			C792.92,1231.42,796.76,1230.94,802.08,1231.78z"/>
		<path fill="#F6C72E" d="M843.59,1171.01c-4.35,2.2-7.06,3.57-12.01,6.07c4.37-9.51,7.82-17.01,11.26-24.51
			c0.94,0.2,1.88,0.41,2.82,0.61C844.97,1159.16,844.27,1165.14,843.59,1171.01z"/>
		<path fill="#474747" d="M556.36,1035.63c-0.64-0.45-1.28-0.89-1.91-1.34C555.09,1034.74,555.72,1035.19,556.36,1035.63z"/>
		<path fill="#FAFAFA" d="M793.34,1283.26c0.36-0.59,0.71-1.19,2.38-3.95c-0.67,3.28-0.85,4.14-1.02,5
			C794.25,1283.96,793.79,1283.61,793.34,1283.26z"/>
		<path fill="#E2E2E2" d="M796.14,1278.75c0.17,0.2,0.47,0.4,0.47,0.6c-0.01,0.19-0.32,0.38-0.5,0.57c-0.17-0.2-0.47-0.4-0.47-0.6
			C795.65,1279.13,795.96,1278.94,796.14,1278.75z"/>
		<path fill="#FDFCF9" d="M341.02,1218.33c4.67-16.22,9.33-32.44,14-48.66c15.2-3.99,30.36-6.85,45.13,0.45
			c3.32,7.74,0.22,12.75-6.27,14.55c-8.62,2.4-17.65,3.38-26.53,4.81c-5.98,0.96-12,1.65-18,2.47c0.14,1.26,0.29,2.52,0.43,3.78
			c6.55-0.42,13.1-1.25,19.63-1.16c6.46,0.09,12.91,1.11,18.97,1.69c0.55,10.65-1.53,13.57-10.61,15.43
			C365.59,1214.19,353.28,1216.14,341.02,1218.33z"/>
		<path fill="#FCD247" d="M341.02,1218.33c12.26-2.19,24.57-4.14,36.77-6.63c9.07-1.85,11.15-4.78,10.61-15.43
			c-6.07-0.58-12.51-1.6-18.97-1.69c-6.54-0.09-13.09,0.73-19.63,1.16c-0.14-1.26-0.29-2.52-0.43-3.78c6-0.81,12.02-1.5,18-2.47
			c8.88-1.43,17.9-2.42,26.53-4.81c6.49-1.8,9.59-6.81,6.27-14.55c-14.77-7.3-29.94-4.44-45.13-0.45c0.57-1.6,1.14-3.2,1.71-4.79
			c12.33-0.42,24.66-1.21,36.98-1.14c6.06,0.03,11.23,3.18,12,9.87c0.83,7.13-3.47,11.62-9.57,14.49c-2.53,1.19-5.2,2.11-6.5,2.63
			c1.08,5.17,4.15,10.86,2.5,14.29c-2.1,4.36-7.57,8.66-12.38,9.87c-13.11,3.31-26.63,4.98-39.99,7.31
			C340.19,1220.91,340.6,1219.62,341.02,1218.33z"/>
		<path fill="#E2E2E2" d="M345.09,1112.03c-23.03-21.49-46.99-43.86-69.83-65.18C284.87,1046.55,339.45,1096.64,345.09,1112.03z"/>
		<path fill="#E2E2E2" d="M684.21,1472.8c1.55,0.85,3.46,1.38,4.6,2.61c16.09,17.54,31.88,35.36,40.64,57.98
			c1.92,4.96,2.43,10.46,3.8,16.67c-2.4-0.78-3.31-0.87-3.36-1.12c-5.01-27.52-22.96-47.27-40.28-67.44
			c-2.2-2.56-3.65-5.76-5.45-8.66C684.17,1472.84,684.21,1472.8,684.21,1472.8z"/>
		<path fill="#FBCC2F" d="M1057.46,1158.21c-1.61,1.2-3.21,2.4-4.82,3.6c-0.59-0.58-1.18-1.15-1.78-1.73
			c1.71-1.13,3.43-2.27,5.14-3.4C1056.49,1157.19,1056.97,1157.7,1057.46,1158.21z"/>
		<path fill="#FBCC2F" d="M1056.01,1156.68c1.21-0.47,2.41-0.94,3.62-1.42l0.24,0.18c-0.8,0.92-1.61,1.84-2.41,2.76
			C1056.97,1157.7,1056.49,1157.19,1056.01,1156.68z"/>
		<path fill="#FBCC2F" d="M1059.62,1155.27c0.23-0.43,0.46-0.86-0.36,0.67c1.36-1.1,0.98-0.79,0.6-0.49
			C1059.87,1155.45,1059.62,1155.27,1059.62,1155.27z"/>
		<path fill="#FDCD2F" d="M1043.31,1159.39c-0.63,0.31-1.26,0.62-2.57,1.28c0.48-1.37,0.7-2.01,0.93-2.66
			C1042.21,1158.46,1042.76,1158.92,1043.31,1159.39z"/>
		<path fill="#252420" d="M735.58,925.24c1.17,6.46-3.74,8.4-8.29,9.64c-7.39,2.01-15.02,3.27-20.81-3.74
			C710.62,920.12,725.44,917.29,735.58,925.24z M719.8,924.14c-3.64,1.77-6.65,3.23-9.66,4.7c0.04,0.68,0.08,1.36,0.11,2.03
			c2.97,0.76,5.93,1.52,9.54,2.44C719.8,929.99,719.8,927.62,719.8,924.14z"/>
		<path fill="#342F1D" d="M731.19,971.81c-7.93,4.91-14.39,4.58-19.28-1.01c-5.15-5.89-4.4-11.64,0.74-17.38
			C718.99,959.71,725.06,965.72,731.19,971.81z M724.38,970.56c-3.53-3.5-7.25-7.19-10.69-10.61
			C710.86,967.67,715.01,972.07,724.38,970.56z"/>
		<path fill="#FDFCF9" d="M729.78,1295.03c-8.52,1.64-17.47,4.44-26.47,4.6c-3.81,0.07-8.89-4.76-11.05-8.65
			c-0.95-1.72,3.18-7.69,6.29-9.98c12.56-9.25,25.61-17.83,38.52-26.6c2.34-1.59,4.84-4.02,7.31-4.07
			c3.79-0.08,7.61,1.57,11.42,2.49c-1.21,3.63-1.44,8.22-3.84,10.67c-3.89,3.97-9.01,6.9-13.98,9.6c-6.53,3.55-10.1,7.98-7.5,15.75
			C730.89,1290.02,730.21,1291.57,729.78,1295.03z"/>
		<path fill="#22201B" d="M525.3,1438.08c-9.6-2.1-19.32-3.77-28.75-6.45c-6.34-1.81-10.35-6.51-7.74-13.59
			c2.53-6.87,7.96-7.23,14.67-6.05c10.14,1.8,20.47,2.84,30.76,3.28c6.68,0.29,12.15,1.6,13.28,8.81
			c1.13,7.26-3.23,10.98-10.13,11.89c-3.91,0.52-7.86,0.78-11.79,1.16C525.5,1437.45,525.4,1437.77,525.3,1438.08z"/>
		<path fill="#FEFCF4" d="M743.83,1293.63c-3.41-4.19-5.62-6.92-7.93-9.76c6.24-5.83,10.92-8.11,16.79-0.46
			C750.23,1286.25,747.86,1288.99,743.83,1293.63z"/>
		<path fill="#342F1D" d="M802.08,1231.78c-5.32-0.83-9.16-0.35-10.67-2.01c-1.24-1.35,0-5.32,0.7-7.98
			c0.65-2.49,2.03-4.8,3.73-8.64C797.94,1219.42,799.56,1224.24,802.08,1231.78z"/>
		<path fill="#E2E2E2" d="M719.8,924.14c0,3.49,0,5.86,0,9.17c-3.61-0.92-6.58-1.68-9.54-2.44c-0.04-0.68-0.07-1.36-0.11-2.03
			C713.16,927.37,716.16,925.91,719.8,924.14z"/>
		<path fill="#F7F7F7" d="M724.38,970.56c-9.36,1.51-13.52-2.89-10.69-10.61C717.13,963.37,720.85,967.06,724.38,970.56z"/>
	</g>
</g>
</svg>
