<?xml version="1.0" encoding="utf-8"?>
<!-- Generator: Adobe Illustrator 26.0.3, SVG Export Plug-In . SVG Version: 6.00 Build 0)  -->
<svg version="1.1" id="Layer_1" xmlns="http://www.w3.org/2000/svg" xmlns:xlink="http://www.w3.org/1999/xlink" x="0px" y="0px"
	 viewBox="0 0 2000 2000" enable-background="new 0 0 2000 2000" xml:space="preserve">
<g>
	<g>
		<path fill="#FEFEFE" d="M1951.5,1729.42c-634.29,0.01-1268.57,0.01-1903,0.01c0-486.2,0-972.41,0-1458.85
			c634.24,0,1268.62,0,1903,0C1951.5,756.81,1951.5,1243.11,1951.5,1729.42z M1830.54,1429.41l0.06,0.06
			c-7.38-9.08-11.65-9.08-17.84,0.02c-1,3.74-3.05,7.55-2.83,11.22c0.91,14.98,6.58,28.68,12.74,42.16c0.39,0.84,1.6,1.31,2.43,1.95
			c0.1,1.87,0.21,3.74,0.31,5.6c1.12,2.05,2.24,4.11,4.05,7.42c-14.2-2.08-26.7-3.91-39.17-5.74c0-1.95,0-3.33,0-4.71l-0.07,0.06
			c5.27-1.95,4.98-6.66,2.87-9.7c-1.95-2.81-6.15-5.16-9.6-5.56c-4.03-0.47-8.32,1.4-12.58,2.26c0-0.91,0-1.76,0-2.61
			c2.88-4.94,6.19-9.68,8.52-14.87c1.99-4.43,1.87-9.44-2.44-12.71c-3.93-2.99-8.59-3.39-13.13-0.91c-2.03,1.11-4.2,2.11-5.91,3.62
			c-9.92,8.78-17.47,19.27-22.33,31.64c-1.4,1.76-2.8,3.51-4.18,5.25c-7.62-1.12-14.85-1.97-21.99-3.34
			c-2.38-0.46-5.02-1.76-6.68-3.49c-12.91-13.51-25.62-27.21-38.32-40.92c-1.14-1.24-1.72-3-2.56-4.52
			c9.58-15.66,20.01-30.86,28.59-47.05c39.89-75.24,56-156.52,58.85-240.79c1.28-37.91-0.4-75.81-6.53-113.39
			c-5.79-35.47-14.71-70.03-27.6-103.66c-27.09-70.66-70.12-130.89-121.89-185.05c-27.82-29.1-57.72-56.23-87.08-83.82
			c-14.66-13.77-30.22-26.59-45.38-39.83c-21.74-18.98-43.56-37.88-65.22-56.95c-14.67-12.91-29.32-25.84-43.64-39.14
			c-15.19-14.11-30.3-28.33-44.83-43.1c-25.39-25.79-49.54-52.76-77.78-75.68c-41.82-33.93-89.14-57.32-139.9-74.09
			c-47.66-15.75-96.96-22.78-146.93-24.92c-35.33-1.51-70.66,0.21-105.66,5.28c-38.98,5.65-77.34,14.39-114.52,27.64
			c-23.06,8.22-45.92,16.96-67.12,29.46c-3.48,0.17-6.97,0.48-10.45,0.48c-61.75,0.03-123.51,0.01-185.26,0.04
			c-3.48,0-6.97,0.3-10.45,0.45c-4.07,0-8.15,0.01-12.22,0.01c-1.44-0.16-2.88-0.46-4.33-0.46c-61.55-0.02-123.1-0.03-184.65,0.02
			c-1.92,0-3.84,0.57-5.57,0.84c-2.1,11.57-1.37,33.24,1.26,41.17c0.47,1.71,0.94,3.42,1.42,5.13
			c6.83,21.34,22.69,32.12,43.45,37.19c5.21,6.98,10.33,14.04,15.66,20.94c31.68,41.02,63.39,82.02,95.12,123
			c13.38,17.28,26.8,34.52,40.35,51.66c1.43,1.81,3.88,2.82,5.86,4.2c0.62-0.65,1.24-1.3,1.85-1.95c-2.33-3.47-4.47-7.08-7.01-10.38
			c-16.49-21.48-33.04-42.93-49.63-64.34c-23.72-30.6-47.56-61.1-71.24-91.74c-7.64-9.89-14.9-20.07-22.34-30.11
			c1.45-0.06,2.91-0.16,4.36-0.16c77.51-0.01,155.03-0.01,232.54,0.01c2.03,0,4.06,0.21,6.1,0.31c-0.86,1.5-1.51,3.19-2.63,4.46
			c-23.55,26.79-41.24,57.19-54.09,90.26c-10.76,27.68-20.13,55.89-30.04,83.9c-1.92,5.44-3.5,11-5.14,16.21
			c2.12,2.87,3.78,5.26,5.58,7.55c22.83,29.17,45.64,58.35,68.52,87.47c28.28,36,56.62,71.95,84.94,107.93
			c0.45,0.75,0.81,1.56,1.35,2.25c29.87,38.15,59.76,76.28,89.66,114.41c1.15,1.47,2.45,2.82,4.13,4.74
			c8.69-11.07,16.81-21.34,24.85-31.68c18.61-23.94,37.17-47.92,55.75-71.88c8.01-9.99,16.13-19.91,24.03-29.99
			c52.52-67.03,104.98-134.11,157.48-201.15c34.33-43.84,68.76-87.6,103.04-131.47c13.81-17.68,27.36-35.56,41.03-53.35
			c2.86-0.77,5.72-1.54,8.57-2.31c-5.7,7.73-11.22,15.61-17.13,23.18c-64.55,82.57-129.17,165.08-193.74,247.63
			c-53.6,68.53-107.16,137.09-160.72,205.65c-13.09,16.75-26.12,33.54-39.22,50.35c0.95,1.38,1.55,2.35,2.25,3.25
			c42.08,53.82,84.12,107.66,126.27,161.43c13.67,17.44,27.6,34.68,41.41,52.02c-1.06,2.18-2.12,4.36-3.18,6.54
			c-56.77-72.49-113.54-144.99-170.65-217.91c-2.28,2.64-3.67,4.12-4.91,5.71c-54.52,69.63-109.03,139.27-163.55,208.91
			c-49.48,63.2-99,126.37-148.43,189.61c-24.8,31.72-49.43,63.57-74.14,95.35c-2.4,0-4.81,0.01-7.21,0.01
			c7.04-9.31,13.95-18.72,21.14-27.91c118.97-152.13,237.98-304.22,356.96-456.34c5.34-6.82,10.51-13.78,15.82-20.75
			c-84.09-107.55-167.61-214.37-251.9-322.18c-1.47,3.81-2.25,5.68-2.93,7.59c-12.6,35.43-24.57,71.1-37.9,106.25
			c-24.59,64.83-56.2,126.38-90.99,186.2c-33.72,57.98-70.6,114-110.63,167.89c-27.21,36.62-51.66,74.77-69.43,117.09
			c-17.24,41.07-27.24,83.68-29.35,127.99c-1.41,29.53,2.07,58.7,9.8,87.44c14.77,54.92,44.97,99.5,88.89,135.03
			c26.95,21.8,56.95,38.58,89.15,51.33c53.86,21.32,110.13,32.22,167.62,36.63c36.65,2.81,73.44,3.76,110.18,5.42
			c27.99,1.27,55.99,2.52,83.99,3.46c40.57,1.35,81.15,2.86,121.73,3.47c42.67,0.65,85.35,0.38,128.03,0.39
			c19.58,0.01,39.19,0.35,58.74-0.55c38.47-1.76,76.91-4.16,115.35-6.56c14.25-0.89,28.51-2.11,42.67-3.93
			c28.02-3.6,56.12-6.84,83.9-11.85c38.39-6.92,76.87-13.91,114.66-23.44c50.11-12.64,99.03-29.37,145.56-52.27
			c14.08-6.93,27.58-15.05,41.35-22.62l-0.03-0.56c1.06-0.29,2.13-0.58,3.19-0.86c124.74,0,249.47,0,374.59,0
			c14.65-45.98,29.19-91.59,43.53-136.58c-5.85-5.63-10.85-3.14-15.67-1.22c-12.44,4.97-22.17,13.87-32.13,22.42
			c-6.29,5.39-12.54,10.83-18.8,16.24c-0.72-3.46,0.02-5.94,0.39-8.47c0.8-5.46,2.01-10.97,1.89-16.43
			c-0.08-3.53-1.47-7.66-3.72-10.28c-1.61-1.88-5.63-2.33-8.55-2.27c-2.71,0.05-3.87,2.3-2.36,5.08l0.08-0.19
			c-0.61-0.67-1.22-1.33-1.83-2c-0.34,0.98-0.68,1.96-1.03,2.94c-0.65,0.48-1.29,0.96-1.94,1.44c-1.81,2.34-3.62,4.69-5.63,7.28
			c-2.38-5.36-4.47-10.1-6.57-14.83C1831.52,1430.71,1831.03,1430.06,1830.54,1429.41z"/>
		<path fill="#FDCD2F" d="M607.22,850.59c-28.31-35.97-56.66-71.93-84.94-107.93c-22.88-29.13-45.69-58.31-68.52-87.47
			c-1.79-2.29-3.46-4.68-5.58-7.55c1.64-5.21,3.22-10.77,5.14-16.21c9.91-28,19.29-56.22,30.04-83.9
			c12.85-33.07,30.55-63.47,54.09-90.26c1.12-1.27,1.76-2.96,2.63-4.46c9.45,0,18.9,0,30.53,0c-4.12-4.68-6.49-7.96-9.44-10.6
			c-10.02-8.93-22.09-13.98-34.81-17.65c-40.75-11.75-82.68-14.52-124.71-15.56c-52.29-1.3-104.5,1.26-156.64,5.18
			c-0.47-1.71-0.94-3.42-1.42-5.13c2.85-0.55,5.68-1.45,8.54-1.61c23.62-1.27,47.24-3.3,70.87-3.39
			c42.04-0.15,84.12,0.1,126.12,1.73c27.09,1.05,54.06,5.2,79.99,13.77c18.93,6.26,37.99,12.8,47.33,32.94c16.05,0,31.77,0,48.34,0
			c0.72-6.95,6.04-9.69,11.82-10.97c13.63-3.02,27.29-6.16,41.11-7.98c27.85-3.67,55.78-7.88,81.71-18.5
			c35.32-14.46,72-21.22,109.49-25.73c17.63-2.12,35.15-5.3,52.6-8.66c8.28-1.59,15.59-5.71,21.47-13.88c-3.75,0-6.3,0-8.85,0
			c-33.02,0-66.03-0.13-99.04,0.14c-4.75,0.04-9.9,1.1-14.15,3.16c-48.39,23.4-99.63,34.06-153.12,35.61
			c-39.85,1.16-79.34-2.46-118.74-7.73c-35.96-4.81-71.2-12.71-105.04-26.07c-2.57-1.01-4.78-2.92-7.16-4.4
			c4.07,0,8.15-0.01,12.22-0.01c16.11,5.05,31.99,11.07,48.38,14.95c37.82,8.96,76.29,13.66,115.09,16.38
			c48.39,3.39,96.24,1.7,143.3-11.12c19.03-5.19,37.76-11.24,55.42-20.37c-7.1-0.53-14.08-0.51-21.06-0.53
			c-44.98-0.09-89.97-0.18-134.95-0.28c21.2-12.5,44.06-21.24,67.12-29.46c37.18-13.25,75.54-22,114.52-27.64
			c34.99-5.07,70.33-6.79,105.66-5.28c49.97,2.14,99.28,9.17,146.93,24.92c50.76,16.77,98.09,40.16,139.9,74.09
			c28.24,22.92,52.39,49.89,77.78,75.68c14.54,14.77,29.65,28.99,44.83,43.1c14.31,13.3,28.97,26.23,43.64,39.14
			c21.67,19.07,43.48,37.97,65.22,56.95c15.16,13.24,30.72,26.05,45.38,39.83c29.36,27.59,59.26,54.72,87.08,83.82
			c51.77,54.16,94.8,114.38,121.89,185.05c12.89,33.63,21.81,68.19,27.6,103.66c6.14,37.58,7.82,75.48,6.53,113.39
			c-2.85,84.27-18.96,165.55-58.85,240.79c-8.58,16.19-19.01,31.39-28.59,47.05c-14.01-14.84-28.05-29.65-42.01-44.54
			c-25.16-26.84-50.1-53.89-75.44-80.57c-22.33-23.5-44.88-46.79-67.72-69.78c-11.27-11.35-24.95-18.96-40.6-23.06
			c-21.58-5.65-42.22-2.1-62.57,5.52c-3.06,1.15-6.14,2.24-9.98,3.65c0.24-2.98,0.25-4.72,0.53-6.41c3.21-18.97,6.52-37.93,9.7-56.9
			c9-53.78,18.02-107.56,26.82-161.38c1.03-6.31,2.94-11.34,7.93-15.81c9.83-8.79,16.06-19.96,17.95-33.18
			c1.46-10.18-2.13-18.33-10.64-24.21c-1.64-1.13-3.38-2.11-4.98-3.1c4.65-16.48,4.77-16.31,17.53-25.45
			c4.34-3.11,7.88-7.34,11.63-10.91c-4.09-11.97-16.29-11.48-21.39-16.92c-3.4-18.58-6.49-35.43-9.48-51.76
			c3.33-8.59,7.39-16.75,9.66-25.39c6.7-25.45-9.35-45.6-35.56-45.84c-18.51-0.17-33.67,8.32-48.45,17.92
			c-5.87,3.81-11.32,8.28-17.2,12.08c-1.42,0.92-3.8,0.35-5.74,0.46c-0.17-0.72-0.33-1.43-0.5-2.15c3.47-2.96,6.94-5.92,10.41-8.88
			c1.91-0.79,2.76-1.64,0.16-2.7c-17.18-3.41-31.92,3.03-45.73,11.94c-3.73-4.29-7.02-8.07-11.26-12.94
			c-3.68,9.3,5.68,12.08,5.63,19.48c-2.74,0.3-5.63,0.8-8.52,0.88c-3.11,0.09-7.23-1.96-7.22,4.37c2.49,0.85,4.8,1.64,7.53,2.57
			c-22.47,32.82-29.44,66.09-2.9,100.59c-11.42,10.16-22.78,19.73-33.5,29.95c-9.09,8.66-18.56,13.65-31.88,15.06
			c-42.56,4.53-82.03,19.61-119.32,40.38c-72.25,40.24-127.35,97.93-169.96,168.09c-10.12,16.66-19.11,34-28.62,51.03
			c-13.81-17.33-27.74-34.58-41.41-52.02c-42.14-53.77-84.19-107.61-126.27-161.43c-0.7-0.9-1.3-1.87-2.25-3.25
			c13.09-16.81,26.13-33.6,39.22-50.35c53.56-68.56,107.12-137.12,160.72-205.65c64.57-82.55,129.19-165.06,193.74-247.63
			c5.91-7.57,11.43-15.44,17.13-23.18c15.18-6.35,27.94-15.3,34.52-31.88c-12.53-6.33-24.64-12.74-36.99-18.64
			c-42.46-20.27-85.41-23.48-129.48-4.56c-27.63,11.87-55.98,22.17-85.86,26.8c-22.18,3.43-44.61,5.17-66.86,8.2
			c-11.49,1.56-23.04,3.53-34.17,6.73c-8.18,2.35-15.5,7.22-20.18,15.93c55.8,0,110.73,0.04,165.66-0.01
			c54.93-0.05,109.86-0.17,164.79-0.26c-13.67,17.79-27.22,35.67-41.03,53.35c-34.28,43.87-68.71,87.63-103.04,131.47
			C911.96,704.32,859.5,771.4,806.98,838.44c-7.9,10.08-16.01,20-24.03,29.99c-8.71-3.6-14.87-10.29-20.26-17.57
			c-9.56-12.89-18.44-26.28-28.08-39.11c-7.17-9.54-14.56-19.04-22.83-27.61c-9.23-9.58-18.43-10.24-28.88-2.21
			c-7.33,5.63-13.84,12.47-20.09,19.34c-7.65,8.41-14.42,17.62-22,26.09C631.53,837.75,619.48,844.38,607.22,850.59z M782.93,819.91
			c0.79,0.27,1.59,0.54,2.38,0.8c5.83-3.27,263.27-332.34,267.41-341.82c-5.44-3.32-37.88-4.57-55.69-2
			c-1.16,1.69-2.7,3.77-4.08,5.95c-43.73,69.4-87.43,138.82-131.16,208.21c-25.21,40.01-50.49,79.97-75.62,120.03
			C784.55,813.69,783.99,816.96,782.93,819.91z M950.43,367.13c-7.51,12.83-19.78,18.06-32.76,20.46
			c-23.5,4.35-47.26,7.27-70.91,10.79c-24.55,3.65-48.9,7.96-72.13,17.36c-20.59,8.33-41.86,14.6-63.83,18.24
			c-20.43,3.39-40.91,6.49-61.33,9.94c-6.45,1.09-12.97,2.48-18.99,8.4c47.45,0,93.41,0,139.54,0
			c10.42-16.29,26.04-23.77,44.52-26.17c9.83-1.28,19.7-2.4,29.58-3.22c27.07-2.25,54.23-4.48,80.26-12.6
			c21.98-6.85,43.46-15.32,65.11-23.22c14.32-5.23,28.91-9.02,44.2-10.13c30.33-2.22,58.41,5.58,85.4,18.54
			c11.46,5.5,22.86,11.15,35.92,17.53c0-16.19,0-30.87,0-45.91C1087,367.13,1018.97,367.13,950.43,367.13z M904.16,532.53
			c-13.94,27.08-29.02,54.15-43.59,84c9.46,0.6,16.75,1.05,23.98,1.51c16.89-28.31,33.24-55.74,49.62-83.2
			C927.89,531.38,919.65,530.86,904.16,532.53z"/>
		<path fill="#FDCD2F" d="M1506.6,1569.65c-13.77,7.57-27.27,15.69-41.35,22.62c-46.52,22.9-95.45,39.63-145.56,52.27
			c-37.79,9.53-76.27,16.53-114.66,23.44c-27.78,5.01-55.89,8.25-83.9,11.85c-14.16,1.82-28.42,3.04-42.67,3.93
			c-38.44,2.4-76.88,4.79-115.35,6.56c-19.55,0.9-39.16,0.56-58.74,0.55c-42.68-0.01-85.36,0.25-128.03-0.39
			c-40.59-0.61-81.16-2.12-121.73-3.47c-28.01-0.93-56-2.19-83.99-3.46c-36.73-1.66-73.53-2.62-110.18-5.42
			c-57.49-4.4-113.76-15.31-167.62-36.63c-32.2-12.75-62.2-29.53-89.15-51.33c-43.92-35.52-74.12-80.11-88.89-135.03
			c-7.73-28.74-11.21-57.91-9.8-87.44c2.12-44.31,12.11-86.92,29.35-127.99c17.77-42.32,42.22-80.47,69.43-117.09
			c40.03-53.88,76.91-109.9,110.63-167.89c34.79-59.82,66.4-121.37,90.99-186.2c13.33-35.15,25.31-70.82,37.9-106.25
			c0.68-1.91,1.46-3.78,2.93-7.59c84.29,107.81,167.81,214.63,251.9,322.18c-5.31,6.97-10.48,13.93-15.82,20.75
			c-118.98,152.12-237.99,304.21-356.96,456.34c-7.19,9.19-14.1,18.6-21.14,27.91c-4.05,0.09-8.1,0.09-12.14,0.3
			c-22.59,1.19-39.71,11.26-50.32,31.49c-1.39,2.64-1.5,5.95-2.21,8.94c0,0,0.14-0.18,0.14-0.18c-1.2,3.28-3.17,6.5-3.43,9.85
			c-0.54,6.97-0.18,14.01-0.18,21.02c0,4.81,0,9.63,0,14.42c2.61,0.22,3.76,0.4,4.92,0.4c62.24,0.02,124.47,0.04,186.71-0.05
			c2.5,0,5.09-0.77,7.48-1.62c12.91-4.59,25.57-10.04,38.7-13.85c31.14-9.04,62.95-14.75,95.23-18.38
			c43.65-4.91,87.26-7.23,131.09-3.06c42.85,4.09,83.68,15.21,122.32,34.33c3.24,1.6,7.17,2.47,10.8,2.53
			c15.77,0.27,31.56,0.3,47.33,0.03c6.28-0.11,11.87,1.42,17.72,3.58c9.53,3.51,19.36,6.44,29.28,8.62
			c28.45,6.23,57.41,5.84,86.32,5.7c39.77-0.19,79.32-2.58,118.34-10.93c9.65-2.07,19.34-5.57,29.02-5.61
			c111.91-0.4,223.82-0.26,335.73-0.23C1500.21,1569.18,1503.41,1569.49,1506.6,1569.65z M811.38,1567.75
			c0.08-0.31,0.17-0.62,0.25-0.93c-1.76-0.81-3.5-1.65-5.28-2.43c-39.72-17.49-81.44-27.05-124.63-29.02
			c-24.15-1.11-48.48-0.07-72.66,1.22c-37.63,2.02-75,6.57-111.6,15.94c-15.98,4.09-31.76,8.95-47.63,13.46
			c0.14,0.58,0.29,1.17,0.43,1.75C570.65,1567.75,691.02,1567.75,811.38,1567.75z"/>
		<path fill="#1B1B1A" d="M1506.6,1569.65c-3.2-0.16-6.39-0.47-9.59-0.47c-111.91-0.02-223.82-0.16-335.73,0.23
			c-9.68,0.03-19.37,3.54-29.02,5.61c-39.01,8.35-78.57,10.74-118.34,10.93c-28.92,0.14-57.87,0.53-86.32-5.7
			c-9.92-2.17-19.75-5.1-29.28-8.62c-5.85-2.16-11.44-3.69-17.72-3.58c-15.77,0.27-31.56,0.24-47.33-0.03
			c-3.63-0.06-7.56-0.93-10.8-2.53c-38.64-19.12-79.46-30.25-122.32-34.33c-43.83-4.18-87.44-1.85-131.09,3.06
			c-32.28,3.63-64.08,9.34-95.23,18.38c-13.13,3.81-25.79,9.26-38.7,13.85c-2.39,0.85-4.98,1.61-7.48,1.62
			c-62.24,0.09-124.47,0.07-186.71,0.05c-1.15,0-2.31-0.18-4.92-0.4c0-4.79,0-9.61,0-14.42c0.01-7.01-0.36-14.05,0.18-21.02
			c0.26-3.35,2.23-6.57,3.43-9.85c0.24,4.39,3.69,3.88,6.46,4.06c18.65,1.21,37.31,2.2,55.95,3.51
			c46.69,3.28,93.41,3.35,140.12,0.81c29.17-1.59,58.19-5.05,86.27-13.58c20.31-6.17,40.27-13.28,49.41-34.64c16.1,0,31.52,0,47,0
			c0.86,7.04,4.86,11.06,11.17,12.2c16.33,2.96,32.67,5.94,49.1,8.22c26.35,3.66,52.65,7.59,77.36,17.9
			c21.15,8.82,43.07,14.59,65.49,18.68c11.1,2.02,22.32,3.33,33.79,5c-0.35-5.98-3.79-6.86-7.36-7.26
			c-7.81-0.87-15.68-1.32-23.47-2.37c-5.4-0.73-10.73-2.08-16.03-3.37c-3.09-0.75-6.08-1.95-9.13-2.9
			c-9.73-3.04-19.76-5.37-29.15-9.23c-31.62-13-64.67-19.5-98.42-23.5c-13-1.54-25.89-4.05-38.79-6.35
			c-3.75-0.67-7.19-2.31-8.39-7.25c46.78,0,93.1,0,139.54,0c8.6,12.74,20.1,21.03,35.49,23.76c1.72-6.34-2.95-6.12-5.9-7.28
			c-8.6-3.39-16.33-7.78-22.1-17.19c10.61,0,19.85,0,29.49,0c-0.43-2.37-0.71-3.94-0.98-5.46c-16.11,0-31.56,0-47.02,0
			c-110.16,0-220.31,0-330.47-0.01c-3.5,0-7-0.2-10.5-0.31c0,0,0.05,0.19,0.05,0.19c3.33-4.32,6.15-9.2,10.11-12.84
			c7.08-6.5,14.97-12.11,22.32-18.34c18.86-16.01,34.96-33.93,45.05-57.19c19.33-44.58,43.57-85.63,83.46-115.9
			c22.65-17.18,37.72-40.67,49.71-66.71c11.07-24.03,24.71-46.96,38.47-69.62c6.42-10.57,15.14-20.01,23.99-28.76
			c8.07-7.97,17.68-5.5,22.8,4.63c2.1,4.15,3.84,8.53,5.2,12.97c3.03,9.92,8.88,17.11,17.56,23.07c7.55,5.18,15.06,11.57,20.05,19.1
			c9.14,13.8,16.66,28.71,24.41,43.4c7.34,13.92,13.28,28.65,21.39,42.09c6.72,11.13,15.41,21.13,23.84,31.12
			c2.72,3.22,7.37,4.8,11.68,7.46c1.21-3.41,1.86-5.32,2.56-7.21c7.67-20.76,15.26-41.55,23.06-62.26
			c2.66-7.06,5.83-13.93,8.77-20.88c1.06-2.18,2.12-4.36,3.18-6.54c9.51-17.03,18.5-34.37,28.62-51.03
			c42.61-70.16,97.71-127.85,169.96-168.09c37.29-20.77,76.76-35.85,119.32-40.38c13.33-1.42,22.8-6.4,31.88-15.06
			c10.73-10.23,22.08-19.79,33.5-29.95c-26.54-34.5-19.57-67.77,2.9-100.59c-2.73-0.93-5.04-1.72-7.53-2.57
			c-0.01-6.33,4.1-4.29,7.22-4.37c2.9-0.08,5.78-0.58,8.52-0.88c0.05-7.4-9.31-10.17-5.63-19.48c4.23,4.87,7.52,8.65,11.26,12.94
			c13.81-8.91,28.55-15.35,45.73-11.94c-0.05,0.9-0.1,1.8-0.16,2.7c-3.47,2.96-6.94,5.92-10.41,8.88c0.17,0.72,0.33,1.43,0.5,2.15
			c1.94-0.11,4.32,0.45,5.74-0.46c5.88-3.8,11.33-8.26,17.2-12.08c14.77-9.6,29.94-18.08,48.45-17.92
			c26.21,0.24,42.26,20.39,35.56,45.84c-2.27,8.64-6.34,16.81-9.66,25.39c2.99,16.32,6.08,33.18,9.48,51.76
			c5.09,5.44,17.29,4.95,21.39,16.92c-3.75,3.57-7.29,7.8-11.63,10.91c-12.76,9.15-12.89,8.97-17.53,25.45
			c1.6,0.99,3.35,1.97,4.98,3.1c8.51,5.88,12.1,14.03,10.64,24.21c-1.89,13.23-8.13,24.4-17.95,33.18c-4.99,4.47-6.9,9.5-7.93,15.81
			c-8.79,53.82-17.82,107.59-26.82,161.38c-3.18,18.98-6.48,37.93-9.7,56.9c-0.29,1.69-0.29,3.43-0.53,6.41
			c3.85-1.4,6.92-2.5,9.98-3.65c20.35-7.62,40.98-11.17,62.57-5.52c15.65,4.09,29.33,11.71,40.6,23.06
			c22.84,23,45.39,46.29,67.72,69.78c25.34,26.67,50.28,53.72,75.44,80.57c13.96,14.89,28,29.7,42.01,44.54
			c0.84,1.52,1.41,3.29,2.56,4.52c12.7,13.71,25.41,27.41,38.32,40.92c1.66,1.74,4.3,3.04,6.68,3.49
			c7.13,1.37,14.37,2.22,21.99,3.34c1.38-1.74,2.78-3.49,4.18-5.25c0.94,1.05,1.89,2.09,2.83,3.14c0.45,1.11,0.74,3.08,1.38,3.2
			c3.38,0.64,6.86,0.83,10.67,1.2c5.94-6.02,11.82-11.98,17.7-17.95c0.91,1.21,1.81,2.42,2.72,3.63c0,0.85,0,1.7,0,2.61
			c4.25-0.87,8.55-2.73,12.58-2.26c3.46,0.4,7.65,2.75,9.6,5.56c2.11,3.04,2.4,7.75-2.87,9.7c-0.54-2.84-1.08-5.69-1.63-8.57
			c-8.14-3.52-20.17,0.06-28.55,9.06c9.92,0.39,19.35,6.44,28.28-1.78c0.15-0.14,1.3,0.79,1.98,1.22c0,1.38,0,2.76,0,4.71
			c12.48,1.83,24.98,3.66,39.17,5.74c-1.81-3.31-2.93-5.36-4.05-7.42c2.91-5.03,5.21-1.71,7.97,0.93
			c4.01-21.25,2.55-41.57-6.19-61.2c1.13-0.22,2.26-0.44,3.4-0.67l-0.06-0.06c0.49,0.65,0.97,1.3,1.46,1.95
			c2.1,4.73,4.19,9.47,6.57,14.83c2.01-2.6,3.82-4.94,5.63-7.28c-0.02,3.34,0.56,6.81-0.17,9.99c-3.06,13.2-4.18,26.53-4.72,40.16
			c1.48-0.22,2.25-0.09,2.54-0.41c12.08-13.33,17.8-28.97,16.55-46.95c-0.16-2.3-1.84-4.5-2.76-6.61c-2.88,0.7-4.8,1.17-6.72,1.63
			c-1.52-2.78-0.36-5.03,2.36-5.08c2.92-0.06,6.94,0.39,8.55,2.27c2.25,2.62,3.64,6.76,3.72,10.28c0.13,5.46-1.09,10.96-1.89,16.43
			c-0.37,2.53-1.11,5.01-0.39,8.47c6.27-5.42,12.52-10.85,18.8-16.24c9.96-8.55,19.7-17.45,32.13-22.42
			c4.83-1.93,9.82-4.41,15.67,1.22c-14.34,44.99-28.88,90.6-43.53,136.58c-125.11,0-249.85,0-374.59,0
			c-1.06,0.29-2.13,0.58-3.19,0.86L1506.6,1569.65z M1036.59,1005.98c-0.48,0.4-0.96,0.79-1.43,1.19c-2.4,1.65-4.86,3.21-7.18,4.95
			c-39.54,29.81-73.02,65.48-100.53,106.5c-13.42,20.02-24.83,41.39-37.15,62.14c-1.09,2.02-2.18,4.03-3.28,6.05
			c-20.23,38.12-35.07,78.34-46.69,119.82c-0.62,2.14-1.24,4.28-1.86,6.42c-1.26,4.46-2.83,8.86-3.72,13.39
			c-5.1,26.14-10.04,52.31-15.03,78.48c-0.37,2.21-0.73,4.43-1.1,6.64c-4.65,30.85-6.17,61.87-6.24,93.63
			c9.88-8.91,18.25-17.5,27.68-24.72c14.77-11.3,30.25-21.66,45.43-32.42c1.32-0.93,2.63-1.86,3.95-2.79
			c2.84-1.38,5.74-2.64,8.5-4.16c18.88-10.34,37.49-21.23,56.67-30.99c20.26-10.31,41.05-19.57,61.5-29.23
			c-10.07-5.43-20.24-10.9-30.4-16.38c-1.47-1.15-2.95-2.3-4.42-3.44c-20.47-18.64-38.12-39.2-45.56-66.73
			c-0.55-1.88-1.1-3.77-1.65-5.65c0.01-1.16,0.22-2.37-0.01-3.49c-4.14-20.21-4.31-40.5-1.3-60.87c0.39-1.93,0.78-3.87,1.17-5.8
			c0.22-2.16,0.43-4.33,0.65-6.49c0.43-1.75,0.86-3.5,1.29-5.25c0.7-3.5,1.4-7.01,2.1-10.51c0.48-1.73,0.96-3.46,1.44-5.19
			c0.27-1.71,0.38-3.47,0.83-5.13c10.14-37.38,26.97-71.84,45.96-105.38c14.41-25.45,31.51-49.01,49.99-71.61
			c0.52-0.65,1.04-1.31,1.56-1.96c0.89-0.62,1.78-1.25,2.67-1.87c1.41-1.17,2.82-2.34,4.24-3.5c-0.6-0.61-1.2-1.23-1.8-1.84
			c-1.78,1.6-3.55,3.21-5.33,4.81C1037.24,1005.08,1036.93,1005.54,1036.59,1005.98z M1388.53,950.7c-0.21-0.8-0.43-1.6-0.64-2.4
			c-0.35,0.17-0.7,0.35-1.05,0.52c0.51,0.67,1.02,1.34,1.54,2c0.21,0.81,0.41,1.62,0.62,2.43c0.35-0.18,0.7-0.35,1.06-0.53
			C1389.55,952.06,1389.04,951.38,1388.53,950.7z M1816.45,1510.3c-1.11,11.22-2.22,22.44-3.34,33.86
			c3.53,4.61,7.18,9.38,12.08,15.79c3.45-8.11,6.36-14.93,9.27-21.76c0.35-1.41,0.69-2.82,1.04-4.23
			c-0.29-7.32-0.58-14.64-0.87-21.96c-0.38-2.76-0.77-5.53-1.21-8.68c-5.96-0.78-11.47-1.49-17.89-2.33
			C1815.91,1504.81,1816.18,1507.55,1816.45,1510.3z M1280.66,1046.64c0.61-2.05,1.22-4.09,1.82-6.14
			c2.07-6.16,4.13-12.32,6.14-18.3c-49.09-7.31-72.53-37.84-79.89-84.12c-6.66,0.91-12.66,1.73-18.66,2.56c-2,0.48-4,0.97-6,1.45
			c-4.27,0.56-8.61,0.8-12.8,1.74c-27.74,6.26-54.47,15.31-79.53,28.96c-1.78,0.93-3.56,1.85-5.33,2.78
			c-8.99,6.33-18.69,11.87-26.82,19.16c-21.66,19.4-39.2,42.41-54.54,66.99c-8.44,13.52-15.72,27.76-23.52,41.67
			c-0.37,0.26-0.73,0.53-1.1,0.79c0.34,0.09,0.68,0.18,1.03,0.26c-0.04-0.4-0.07-0.79-0.11-1.19c7.73-1.03,15.45-2.07,23.18-3.1
			c2.21-0.12,4.43-0.25,6.64-0.37c13.58,1.41,27.22,2.35,40.7,4.38c10.02,1.51,19.83,4.41,29.73,6.69c2.02,0.74,4.04,1.47,6.06,2.21
			c8.36,2.97,16.73,5.94,25.1,8.91c1.85,0.75,3.69,1.5,5.54,2.24c1.27,0.69,2.51,1.45,3.83,2.05c24.98,11.36,49.84,22.9,67.47,46.63
			c7.53-21.5,14.71-42.04,21.9-62.57c1.14-3.07,2.29-6.14,3.43-9.22c3.83-10.03,7.68-20.06,11.46-30.11
			c1.04-2.76,1.86-5.59,6.41-3.81c-0.31,2.07-0.28,4.08-0.92,5.85c-13.38,36.93-26.85,73.83-40.23,110.76
			c-2.2,6.07-6.38,9.71-12.58,10.82c-5.97,1.07-12.03,1.69-18.22,2.53c-0.92,2.32-1.86,4.7-3.18,8.01
			c23.6,2.54,46.66,5.02,70.16,7.55c11.46-36.31,22.66-71.78,33.86-107.24c0.48-1.69,0.96-3.39,1.44-5.08
			C1268.98,1082.46,1274.82,1064.55,1280.66,1046.64z M1809.34,1509.88c0-3.31,0-6.61,0-9.79c-9.37-1.35-17.63-2.54-25.81-3.72
			c-5.77,2.83-11.38,5.59-16.99,8.34c-6.52,1.35-13.04,2.69-20.68,4.27c10.96,4.84,21.06,9,30.89,13.71
			c10.16,4.88,20.07,10.29,31.62,16.27C1808.71,1528.81,1809.02,1519.35,1809.34,1509.88z M1473.42,1446.48l0.45-0.4l-0.65-0.51
			c-25.29-19.09-50.58-38.18-76.4-57.66c-14.37,13.68-28.16,26.81-43.07,41.01c14.23,2.09,26.8,3.94,39.37,5.79
			C1419.88,1438.64,1446.65,1442.56,1473.42,1446.48z M937.87,1278.1c0.36,1.36,0.72,2.72,1.07,4.09
			c3.84,16.46,8.27,32.66,19.72,45.85c2.35,2.92,4.34,6.24,7.1,8.71c31.88,28.6,69.58,35.23,110.34,27.62
			c33.04-6.17,63.15-19.93,91.65-37.72c28.68-17.9,57.08-36.36,87.88-50.67c18.5-8.6,36.66-17.94,54.96-26.97
			c2.51-1.24,4.94-2.63,9.17-4.89c-12.01-5.31-22.17-10.39-32.76-14.34c-18.77-7-38.73-8.09-58.38-10.66
			c-11.87-1.56-23.72-3.29-35.71-0.75c-20.65,4.36-37.84,14.85-52.75,29.45c-1.91,1.87-3.98,3.57-5.98,5.35
			c-0.72-0.41-1.44-0.81-2.16-1.22c0.55-2.56,0.71-5.28,1.7-7.66c5.52-13.17,11.22-26.26,16.89-39.37c4.03-9.31,8.13-18.59,12-27.42
			c-41.06-65.27-151.27-83.34-188.96-62.4c-4.29,10.13-8.93,21.1-13.58,32.06c-0.46,0.71-1.05,1.37-1.36,2.14
			C941.95,1190.64,932.67,1233.2,937.87,1278.1z M910.53,1440.82c-1.69,0.94-3.39,1.87-5.08,2.81
			c-22.3,12.16-43.35,26.15-63.37,42.5c5.9,18.39,13.05,35.77,23.95,51.47c11.03,15.89,25.42,26.9,44.21,32.46
			c20.61,6.11,41.73,8.98,63,9.86c45.3,1.88,90.54,0.27,135.41-6.62c55.35-8.5,105.52-29.83,148.97-65.12
			c24.66-20.03,47.53-42.3,70.8-64.01c28.82-26.89,57.2-54.27,85.81-81.39c7.15-6.78,10.52-6.83,18.1-0.59
			c6.54,5.38,12.99,10.87,19.51,16.27c11.6,9.62,11.61,9.6,6.73,23.01c-0.09,0.24,0.05,0.57,0.18,1.81
			c2.69,2.39,5.89,5.29,9.15,8.12c3.31,2.87,6.8,5.55,10,8.53c5.29,4.93,5.54,9.66,1.07,15.26c-1.05,1.31-2.15,2.58-3.67,4.4
			c32.6,24.36,64.83,48.44,98.19,73.37c10.87-3.36,22.22-6.86,33.58-10.37c2.07-0.87,4.15-1.75,6.22-2.62
			c19.5-7.53,35.16-20.3,48.85-35.76c3.4-3.77,6.8-7.54,10.31-11.44c-2.82-3.19-4.89-5.62-7.06-7.95
			c-28.63-30.76-57.11-61.67-85.97-92.22c-34.27-36.28-68.84-72.28-103.34-108.34c-9.17-9.59-19.82-17.11-32.29-21.92
			c-23.69-9.14-47.44-7.44-69.74,3c-47.17,22.09-93.72,45.53-140.52,68.42c-7.11,5.53-14.3,10.96-21.32,16.6
			c-30.13,24.18-61.54,46.41-96.75,62.74c-24.56,11.39-50.17,18.16-77.28,12.2c-10.44-2.29-18.71,0.33-27.04,5.51
			c-1.78,0.51-3.56,1.03-5.73,1.66c1.16,4.38,2.15,7.99,3.08,11.62c5.08,19.88,8.17,39.9,4.73,60.48
			c-2.36,14.09-7.61,26.65-18.22,37.23c-5.85-2.96-11.49-5.82-17.13-8.67c6.77-3.5,11.68-9.04,14.21-15.93
			c3.38-9.2,7.01-18.68,8.03-28.31c1.86-17.52,2.09-35.25-1.65-53.62c-10.19,4.7-19.86,8.66-29.06,13.52
			C949.65,1419.23,930.14,1430.12,910.53,1440.82z M1312.75,930.69c0.09-1.46,0.18-2.93,0.28-4.39c2.86,0.96,5.98,1.48,8.55,2.95
			c12.18,6.96,24.45,13.59,38.33,16.63c19.91,4.36,36.09-4.78,43.05-24.47c-7.17-0.83-14.3,4.22-23.2,0.16
			c8.83-6.97,19.07-3.74,27.82-8.3c0.04-11.01,7.99-16.55,16.91-21.61c3.26-1.85,5.75-5.06,9.42-8.4c-5.35-2.72-9.13-4.86-13.09-6.6
			c-6.46-2.84-9.49-7.01-10.11-14.63c-1.05-12.97-3.94-25.78-6.06-38.66c-0.89-0.43-1.77-0.86-2.66-1.29
			c-1.45,2.18-2.5,4.83-4.42,6.46c-9.3,7.9-18.38,16.18-28.41,23.07c-12.35,8.48-17.28,6.87-25.33-5.79
			c-3.74-5.88-9.56-7.67-14.82-3.23c-3.27,2.76-5.72,7.28-6.95,11.47c-1.73,5.87,0.99,11.26,4.14,16.45
			c5.38,8.88,3.75,16.78-4.29,23.13c-13.4,10.56-28.3,13.42-44.43,7.78c-4.86-1.7-9.23-4.81-14.41-7.6
			c-16.01,14.2-32.09,28.46-47.94,42.52c5.2,50.58,40.18,79.06,76.22,78.72c5.37-11.3,11.26-22.67,16.26-34.41
			C1314.41,964.6,1314.39,947.68,1312.75,930.69z M1339.25,1234.55c5.75-2.64,11.49-5.28,16.83-7.73
			c2.14-14.36,4.07-27.85,6.19-41.31c1.8-11.45,3.75-22.88,5.75-34.29c2.15-12.26,4.62-24.46,6.62-36.74
			c1.96-12.01,3.2-24.14,5.28-36.13c3.26-18.82,6.96-37.55,10.46-56.33c3.34-17.92,2.65-37.38,19.18-50.27
			c6.88-7.62,10.79-16.44,10.7-26.82c-0.08-9.25-3.91-13.91-13.52-16.48c-5.47,6.73-7.69,14.26-5.94,23.35
			c5.18-4.73,2.21-13.47,10.35-17.59c1.18,8.98-2.06,15.56-4.85,22.07c-0.89,2.08-3.49,4.63-5.43,4.73
			c-2.2,0.12-4.53-2.27-6.07-3.15c-2.08,2.61-4.35,5.47-7.17,9.02c-3.63-4.26-5.39-6.34-7.25-8.53c-5.22,4.1-7.28-0.52-10.39-5.77
			c-5.61,9.38-11.17,16.91-14.92,25.25c-25.34,56.29-50.27,112.76-75.4,169.14c-10.14,22.75-20.47,45.4-30.98,68.68
			c27.66,2.72,53.42,10.25,76.45,26.18C1329.98,1239.33,1334.62,1236.94,1339.25,1234.55z M1329.12,1456.97
			c-6.32,17.8-5.28,34.3,8.3,48.78c13.34,14.22,30.24,21.4,48.87,25.51c17.35,3.83,34.75,7.55,51.9,12.17
			c9.74,2.62,18.1,7.92,19.51,19.38c59.98,0,119.3,0,178.61-0.02c0.85,0,1.71-0.29,3.19-0.55c3.29-12.73,6.62-25.64,9.57-37.07
			c-8.67-8.35-16.36-15.76-24.55-23.65c-16.09,8.29-34.15,14.55-53.82,16.16c-2.64-1.89-5.25-3.73-7.83-5.62
			c-15.99-11.73-31.96-23.47-47.94-35.21c-8.51-6.53-16.85-13.31-25.63-19.45c-3.41-2.39-7.7-4.19-11.81-4.81
			c-31.36-4.78-62.76-9.22-94.16-13.71c-11.77-1.68-23.57-3.2-35.37-4.79C1341.24,1441.9,1331.64,1446.43,1329.12,1456.97z
			 M1287.23,1111.98c0.28,0.2,0.55,0.4,0.83,0.6c1.74-3.62,3.58-7.2,5.21-10.88c14.21-32.2,28.15-64.52,42.65-96.58
			c8.06-17.82,15.09-36.23,26.65-51.88c-9.77-3.28-19.65-6.59-29.9-10.02c-0.51,0.67-1.38,1.47-1.86,2.46
			c-11.19,23.35-22.39,46.69-33.42,70.12c-1.2,2.54-1.66,5.54-1.93,8.37C1292.65,1053.43,1289.95,1082.71,1287.23,1111.98z
			 M1721.57,1505.69c-15.04-16.27-29.42-31.82-44.34-47.95c-9.36,19.24-20.4,35.74-36.56,47.18c10.84,19.91,28.61,21.74,47.26,19.33
			C1700.93,1522.57,1713.68,1518.9,1721.57,1505.69z M1896.6,1512.48c1.47-4.36,2.65-7.89,3.75-11.16
			c-5.59-9.44-10.94-18.42-16.23-27.43c-2.21-3.76-4.85-5.74-9.03-2.94C1874.15,1477.94,1883.33,1495.75,1896.6,1512.48z
			 M1864.9,1504.15c7.33,13.01,14.25,24.81,22.36,37.78c1.75-5.68,2.85-9.23,3.93-12.72c-7.06-10.1-11.35-21.32-19.78-30.78
			C1868.75,1500.77,1867.13,1502.2,1864.9,1504.15z M1717.92,1531.91c-10.68,10.89-20.84,21.27-30.08,30.69c2.18,0,6.23,0,10.6,0
			c6.91-7,13.96-13.95,20.77-21.13C1723.36,1537.1,1722.98,1535.71,1717.92,1531.91z M1730.39,1562.6
			c6.58-6.78,13.53-13.79,20.29-20.98c4.82-5.12,4.04-7.56-3.59-10.29c-4.9,4.83-10.09,9.87-15.18,15.01
			c-5.04,5.08-9.97,10.26-15.78,16.26C1721.33,1562.6,1725.04,1562.6,1730.39,1562.6z M1738.36,1502.8
			c12.4-0.33,23.23-1.65,33.67-7.69C1750.21,1491.02,1750.21,1491.02,1738.36,1502.8z M1729.21,1488.71
			c-5.63-0.76-10.47-1.41-16.92-2.28c4.76,5.01,8.24,8.68,12.21,12.86C1726.12,1495.63,1727.47,1492.61,1729.21,1488.71z
			 M1734.66,1489.21c-1.3,3.28-2.27,5.75-3.24,8.22c0.5,0.37,0.99,0.75,1.49,1.12c3.17-2.61,6.33-5.22,10.69-8.82
			C1739.77,1489.51,1737.57,1489.38,1734.66,1489.21z"/>
		<path fill="#FBCC30" d="M873.06,1200.2c-2.94,6.96-6.11,13.82-8.77,20.88c-7.8,20.71-15.39,41.5-23.06,62.26
			c-0.7,1.89-1.35,3.8-2.56,7.21c-4.31-2.66-8.97-4.24-11.68-7.46c-8.43-9.99-17.12-19.99-23.84-31.12
			c-8.11-13.44-14.04-28.17-21.39-42.09c-7.74-14.69-15.26-29.6-24.41-43.4c-4.99-7.53-12.5-13.92-20.05-19.1
			c-8.68-5.96-14.54-13.14-17.56-23.07c-1.35-4.44-3.1-8.83-5.2-12.97c-5.12-10.12-14.73-12.6-22.8-4.63
			c-8.86,8.75-17.58,18.19-23.99,28.76c-13.75,22.66-27.4,45.59-38.47,69.62c-11.99,26.04-27.07,49.53-49.71,66.71
			c-39.88,30.26-64.12,71.31-83.46,115.9c-10.09,23.26-26.19,41.18-45.05,57.19c-7.34,6.23-15.23,11.84-22.32,18.34
			c-3.96,3.64-6.78,8.52-10.11,12.84c0,0-0.84-0.18-0.84-0.18l0.79-0.01c3.5,0.11,7,0.31,10.5,0.31
			c110.16,0.02,220.31,0.01,330.47,0.01c15.46,0,30.92,0,47.02,0c0.27,1.52,0.56,3.09,0.98,5.46c-9.64,0-18.87,0-29.49,0
			c5.76,9.41,13.5,13.8,22.1,17.19c2.95,1.16,7.61,0.93,5.9,7.28c-15.39-2.73-26.89-11.02-35.49-23.76c-46.44,0-92.76,0-139.54,0
			c1.2,4.94,4.64,6.58,8.39,7.25c12.9,2.29,25.79,4.81,38.79,6.35c33.75,4,66.8,10.51,98.42,23.5c9.39,3.86,19.42,6.18,29.15,9.23
			c3.05,0.95,6.03,2.15,9.13,2.9c5.31,1.29,10.63,2.64,16.03,3.37c7.79,1.06,15.65,1.5,23.47,2.37c3.57,0.4,7.01,1.28,7.36,7.26
			c-11.47-1.67-22.7-2.98-33.79-5c-22.42-4.08-44.34-9.86-65.49-18.68c-24.71-10.3-51.01-14.24-77.36-17.9
			c-16.43-2.28-32.77-5.26-49.1-8.22c-6.31-1.14-10.31-5.16-11.17-12.2c-15.48,0-30.9,0-47,0c-9.14,21.36-29.1,28.47-49.41,34.64
			c-28.08,8.53-57.1,11.99-86.27,13.58c-46.7,2.54-93.42,2.47-140.12-0.81c-18.64-1.31-37.3-2.29-55.95-3.51
			c-2.77-0.18-6.22,0.33-6.46-4.06c0,0-0.14,0.18-0.14,0.18c3.02-0.63,6.08-1.95,9.06-1.78c14.85,0.84,29.67,2.7,44.52,3.04
			c43.47,1,86.96,2.2,130.43,1.89c33.27-0.24,66.45-3.8,98.68-12.58c11.68-3.18,22.83-8.71,33.76-14.11
			c6.64-3.28,12.04-8.65,14.41-16.91c-49.99,0-99.32,0-148.64-0.01c-0.87,0-1.76,0-2.62-0.14c-0.55-0.09-1.1-0.38-1.56-0.7
			c-0.47-0.33-0.81-0.84-1.24-1.23c-0.16-0.15-0.42-0.2,0.67,0.28c-3.25,0.78-5.38,1.73-7.51,1.73c-32.69,0-65.39-0.13-98.08-0.22
			c24.71-31.79,49.35-63.63,74.14-95.35c49.43-63.24,98.95-126.41,148.43-189.61c54.52-69.64,109.02-139.28,163.55-208.91
			c1.24-1.59,2.63-3.07,4.91-5.71C759.52,1055.21,816.29,1127.71,873.06,1200.2z M512.82,1273.37
			c-9.98,8.37-146.42,172.63-148.33,178.38c5.41,2.62,28.73,3.51,44.16,1.64c1.19-1.72,2.61-3.57,3.8-5.55
			c19.35-31.98,38.66-63.98,57.99-95.97c14.05-23.24,28.12-46.47,42.17-69.71C514.19,1279.53,516.75,1276.93,512.82,1273.37z
			 M699.54,1085.46c7.66-4.99,3.88-11.3,4.75-16.21c0.51-2.86-0.33-5.41-4.75-4C699.54,1071.33,699.54,1077.5,699.54,1085.46z"/>
		<path fill="#1E1D1B" d="M436.88,367.49c2.38,1.49,4.59,3.39,7.16,4.4c33.85,13.36,69.09,21.25,105.04,26.07
			c39.39,5.27,78.88,8.89,118.74,7.73c53.49-1.55,104.73-12.21,153.12-35.61c4.25-2.06,9.41-3.12,14.15-3.16
			c33.01-0.27,66.03-0.14,99.04-0.14c2.55,0,5.1,0,8.85,0c-5.88,8.17-13.2,12.29-21.47,13.88c-17.45,3.35-34.97,6.53-52.6,8.66
			c-37.48,4.51-74.17,11.27-109.49,25.73c-25.93,10.62-53.86,14.83-81.71,18.5c-13.82,1.82-27.48,4.95-41.11,7.98
			c-5.78,1.28-11.1,4.02-11.82,10.97c-16.56,0-32.29,0-48.34,0c-9.34-20.15-28.39-26.69-47.33-32.94
			c-25.93-8.57-52.89-12.72-79.99-13.77c-42-1.63-84.08-1.88-126.12-1.73c-23.63,0.09-47.25,2.12-70.87,3.39
			c-2.87,0.15-5.7,1.05-8.54,1.61c-2.63-7.93-3.36-29.6-1.26-41.17c1.73-0.27,3.65-0.84,5.57-0.84
			c61.55-0.05,123.1-0.04,184.65-0.02C433.99,367.03,435.44,367.33,436.88,367.49z"/>
		<path fill="#1B1B1B" d="M607.22,850.59c12.25-6.22,24.3-12.85,33.59-23.23c7.58-8.48,14.35-17.69,22-26.09
			c6.25-6.87,12.76-13.71,20.09-19.34c10.45-8.03,19.65-7.37,28.88,2.21c8.27,8.58,15.66,18.07,22.83,27.61
			c9.64,12.83,18.52,26.22,28.08,39.11c5.4,7.28,11.56,13.97,20.26,17.57c-18.58,23.96-37.14,47.94-55.75,71.88
			c-8.03,10.34-16.16,20.61-24.85,31.68c-1.68-1.92-2.98-3.27-4.13-4.74c-29.9-38.13-59.78-76.26-89.66-114.41
			C608.04,852.16,607.67,851.35,607.22,850.59z"/>
		<path fill="#1C1C1A" d="M1108.54,452.46c-54.93,0.09-109.86,0.22-164.79,0.26c-54.93,0.05-109.86,0.01-165.66,0.01
			c4.68-8.71,12-13.58,20.18-15.93c11.12-3.19,22.67-5.16,34.17-6.73c22.25-3.03,44.68-4.76,66.86-8.2
			c29.88-4.63,58.23-14.94,85.86-26.8c44.08-18.93,87.02-15.71,129.48,4.56c12.36,5.9,24.47,12.31,36.99,18.64
			c-6.58,16.58-19.34,25.54-34.52,31.88C1114.26,450.93,1111.4,451.7,1108.54,452.46z M1040.18,439.49
			c10.84-1.04,19.91-1.48,28.81-2.92c6.27-1.01,12.44-3.04,18.42-5.26c4.41-1.64,8.8-4.44,8.95-9.77c0.15-5.39-4.14-8.13-8.56-10
			c-4.01-1.7-8.14-3.28-12.37-4.22c-19.6-4.35-39.39-4.75-59.15-1.45c-6.83,1.14-13.55,3.41-20.08,5.81
			c-4.11,1.51-7.81,4.19-7.99,9.42c-0.18,5.35,3.56,7.79,7.61,9.62c3.96,1.79,8.07,3.63,12.3,4.34
			C1019.31,436.94,1030.6,438.21,1040.18,439.49z"/>
		<path fill="#1B1B1A" d="M311.38,1481.88c32.69,0.1,65.39,0.22,98.08,0.22c2.13,0,4.26-0.95,7.51-1.73
			c-1.09-0.48-0.84-0.43-0.67-0.28c0.43,0.39,0.77,0.9,1.24,1.23c0.46,0.33,1.01,0.61,1.56,0.7c0.86,0.14,1.74,0.14,2.62,0.14
			c49.33,0.01,98.66,0.01,148.64,0.01c-2.37,8.26-7.77,13.63-14.41,16.91c-10.93,5.4-22.08,10.93-33.76,14.11
			c-32.23,8.78-65.41,12.33-98.68,12.58c-43.47,0.32-86.96-0.88-130.43-1.89c-14.85-0.34-29.67-2.2-44.52-3.04
			c-2.98-0.17-6.04,1.15-9.06,1.78c0.7-3,0.82-6.3,2.21-8.94c10.61-20.22,27.73-30.3,50.32-31.49c4.04-0.21,8.09-0.21,12.14-0.3
			C306.57,1481.88,308.98,1481.88,311.38,1481.88z"/>
		<path fill="#1D1D1C" d="M245.01,414.19c52.14-3.91,104.36-6.47,156.64-5.18c42.03,1.04,83.96,3.81,124.71,15.56
			c12.73,3.67,24.8,8.71,34.81,17.65c2.95,2.63,5.32,5.92,9.44,10.6c-11.63,0-21.08,0-30.53,0c-2.03-0.11-4.06-0.31-6.1-0.31
			c-77.51-0.02-155.03-0.01-232.54-0.01c-1.45,0-2.91,0.1-4.36,0.16c-2.88-0.43-5.75-0.85-8.63-1.28
			C267.71,446.31,251.84,435.52,245.01,414.19z"/>
		<path fill="#1E1E1B" d="M655.27,366.5c44.98,0.09,89.97,0.19,134.95,0.28c6.98,0.01,13.96,0,21.06,0.53
			c-17.66,9.13-36.38,15.18-55.42,20.37c-47.05,12.83-94.9,14.51-143.3,11.12c-38.8-2.72-77.27-7.42-115.09-16.38
			c-16.39-3.88-32.27-9.9-48.38-14.95c3.48-0.16,6.97-0.45,10.45-0.45c61.75-0.03,123.51-0.01,185.26-0.04
			C648.3,366.98,651.78,366.67,655.27,366.5z"/>
		<path fill="#FCD453" d="M288.47,451.37c2.88,0.43,5.75,0.85,8.63,1.28c7.43,10.05,14.7,20.23,22.34,30.11
			c23.67,30.64,47.51,61.14,71.24,91.74c16.6,21.4,33.14,42.85,49.63,64.34c2.54,3.31,4.68,6.92,7.01,10.38
			c-0.62,0.65-1.24,1.3-1.85,1.95c-1.98-1.38-4.43-2.39-5.86-4.2c-13.55-17.14-26.97-34.38-40.35-51.66
			c-31.74-40.98-63.44-81.98-95.12-123C298.8,465.41,293.68,458.36,288.47,451.37z"/>
		<path fill="#F3F3F3" d="M1827.21,1430.13c8.74,19.63,10.19,39.95,6.19,61.2c-2.76-2.64-5.06-5.95-7.97-0.93
			c-0.1-1.87-0.21-3.74-0.31-5.6c4.8-0.02,2.27-2.9,1.61-4.61c-2.71-7.02-6.09-13.82-8.33-20.98c-2.94-9.38-5.93-18.98-1.71-28.88
			l-0.02-0.03l0.08,0.06C1820.16,1426.8,1823.66,1427.19,1827.21,1430.13z"/>
		<path fill="#F3F3F3" d="M1848.92,1436.72c1.92-0.47,3.83-0.93,6.72-1.63c0.92,2.11,2.6,4.31,2.76,6.61
			c1.25,17.98-4.47,33.62-16.55,46.95c-0.29,0.32-1.06,0.19-2.54,0.41c0.54-13.64,1.66-26.97,4.72-40.16
			c0.74-3.17,0.15-6.65,0.17-9.99c0.65-0.48,1.29-0.96,1.94-1.44c0.95-0.31,1.91-0.63,2.86-0.94L1848.92,1436.72z"/>
		<path fill="#393939" d="M1770.92,1471.82c-0.91-1.21-1.81-2.42-2.72-3.63c2.59-6.36,9.14-11.64,5.67-19.82
			c-5.95-2.7-10.86-0.66-14.19,3.67c-7.41,9.64-14.19,19.77-21.22,29.69c-0.94-1.05-1.89-2.09-2.83-3.14
			c4.86-12.37,12.41-22.86,22.33-31.64c1.7-1.51,3.88-2.51,5.91-3.62c4.55-2.48,9.2-2.08,13.13,0.91c4.3,3.27,4.43,8.28,2.44,12.71
			C1777.11,1462.14,1773.81,1466.89,1770.92,1471.82z"/>
		<path fill="#1B1B1A" d="M1816.68,1430.34c-4.21,9.9-1.23,19.5,1.71,28.88c2.24,7.16,5.62,13.95,8.33,20.98
			c0.66,1.71,3.19,4.59-1.61,4.61c-0.83-0.64-2.05-1.1-2.43-1.95c-6.16-13.47-11.84-27.17-12.74-42.16
			c-0.22-3.67,1.82-7.48,2.83-11.22C1814.07,1429.77,1815.38,1430.05,1816.68,1430.34z"/>
		<path fill="#1E1E1B" d="M1816.68,1430.34c-1.31-0.28-2.61-0.57-3.92-0.85c6.2-9.1,10.46-9.1,17.84-0.02
			c-1.13,0.22-2.26,0.44-3.4,0.67c-3.55-2.95-7.05-3.34-10.46,0.23c-0.31-0.41-0.62-0.82,0.05,0.06c-0.83-0.79-0.48-0.46-0.13-0.12
			L1816.68,1430.34z"/>
		<path fill="#1E1E1B" d="M1506.57,1569.09c1.06-0.29,2.13-0.58,3.19-0.86C1508.7,1568.51,1507.63,1568.8,1506.57,1569.09z"/>
		<path fill="#1E1E1B" d="M1832,1431.36c-0.49-0.65-0.97-1.3-1.46-1.95C1831.03,1430.06,1831.52,1430.71,1832,1431.36z"/>
		<path fill="#1B1B1A" d="M1849,1436.53c-0.95,0.31-1.91,0.63-2.86,0.94c0.34-0.98,0.68-1.96,1.03-2.94
			C1847.78,1435.19,1848.39,1435.86,1849,1436.53z"/>
		<path fill="#FEFDFA" d="M782.93,819.91c1.06-2.96,1.62-6.23,3.25-8.82c25.13-40.06,50.41-80.02,75.62-120.03
			c43.73-69.4,87.43-138.81,131.16-208.21c1.38-2.18,2.92-4.26,4.08-5.95c17.81-2.57,50.25-1.32,55.69,2
			c-4.14,9.48-261.58,338.55-267.41,341.82C784.52,820.45,783.73,820.18,782.93,819.91z"/>
		<path fill="#1E1D1A" d="M950.43,367.13c68.53,0,136.56,0,204.6,0c0,15.04,0,29.71,0,45.91c-13.06-6.38-24.46-12.03-35.92-17.53
			c-26.99-12.96-55.07-20.76-85.4-18.54c-15.29,1.12-29.87,4.91-44.2,10.13c-21.65,7.9-43.13,16.37-65.11,23.22
			c-26.03,8.11-53.19,10.35-80.26,12.6c-9.88,0.82-19.75,1.95-29.58,3.22c-18.48,2.4-34.1,9.88-44.52,26.17
			c-46.13,0-92.1,0-139.54,0c6.02-5.92,12.54-7.32,18.99-8.4c20.42-3.45,40.9-6.55,61.33-9.94c21.96-3.64,43.24-9.91,63.83-18.24
			c23.23-9.4,47.57-13.7,72.13-17.36c23.65-3.52,47.41-6.44,70.91-10.79C930.66,385.19,942.93,379.97,950.43,367.13z"/>
		<path fill="#FEFDFA" d="M904.16,532.53c15.48-1.68,23.72-1.16,30.01,2.31c-16.38,27.46-32.74,54.89-49.62,83.2
			c-7.23-0.46-14.52-0.91-23.98-1.51C875.14,586.68,890.23,559.62,904.16,532.53z"/>
		<path fill="#1E1E1B" d="M1321.83,764.97c0.05-0.9,0.1-1.8,0.16-2.7C1324.59,763.33,1323.73,764.18,1321.83,764.97z"/>
		<path fill="#1C1C1A" d="M811.38,1567.75c-120.37,0-240.73,0-361.1,0c-0.14-0.58-0.29-1.17-0.43-1.75
			c15.87-4.51,31.65-9.38,47.63-13.46c36.6-9.37,73.97-13.92,111.6-15.94c24.18-1.3,48.5-2.33,72.66-1.22
			c43.18,1.98,84.91,11.53,124.63,29.02c1.77,0.78,3.52,1.62,5.28,2.43C811.55,1567.13,811.47,1567.44,811.38,1567.75z"/>
		<path fill="#FCCD2F" d="M1607.05,1502.61c-11.35,3.51-22.71,7.01-33.58,10.37c-33.36-24.93-65.6-49.01-98.19-73.37
			c1.52-1.82,2.62-3.09,3.67-4.4c4.47-5.6,4.22-10.32-1.07-15.26c-3.2-2.98-6.69-5.66-10-8.53c-3.26-2.83-6.46-5.73-9.15-8.12
			c-0.13-1.24-0.27-1.56-0.18-1.81c4.88-13.41,4.87-13.4-6.73-23.01c-6.52-5.4-12.97-10.89-19.51-16.27
			c-7.59-6.25-10.95-6.19-18.1,0.59c-28.61,27.12-56.99,54.5-85.81,81.39c-23.26,21.71-46.14,43.98-70.8,64.01
			c-43.45,35.29-93.62,56.62-148.97,65.12c-44.87,6.89-90.11,8.5-135.41,6.62c-21.27-0.88-42.39-3.75-63-9.86
			c-18.79-5.57-33.18-16.58-44.21-32.46c-10.9-15.7-18.05-33.08-23.95-51.47c20.02-16.36,41.07-30.35,63.37-42.5
			c0.41,0.77,0.67,1.67,1.24,2.3c24.47,26.94,52.58,48.99,86.95,61.77c22.09,8.21,45,10.81,67.54,1.59
			c13.2-5.4,26.17-11.61,38.56-18.67c53.09-30.25,102.58-65.93,151.47-102.4c40-29.83,79.22-60.69,119.08-90.7
			c5.36-4.04,12.21-7.07,18.79-8.32c11.01-2.09,20.54,2.23,28.24,10.55c14.08,15.22,28.26,30.36,42.46,45.47
			c39.8,42.37,79.66,84.68,119.44,127.07C1588.6,1482.3,1597.78,1492.5,1607.05,1502.61z"/>
		<path fill="#FCCD2F" d="M960.08,1147.16c4.64-10.97,9.29-21.93,13.58-32.06c37.69-20.94,147.91-2.87,188.96,62.4
			c-3.86,8.83-7.96,18.11-12,27.42c-5.68,13.1-11.38,26.2-16.89,39.37c-0.99,2.37-1.15,5.1-1.7,7.66c0.72,0.41,1.44,0.81,2.16,1.22
			c2-1.78,4.07-3.48,5.98-5.35c14.92-14.6,32.1-25.08,52.75-29.45c11.99-2.53,23.83-0.8,35.71,0.75
			c19.64,2.57,39.61,3.66,58.38,10.66c10.59,3.95,20.75,9.04,32.76,14.34c-4.23,2.27-6.67,3.66-9.17,4.89
			c-18.3,9.03-36.46,18.38-54.96,26.97c-30.8,14.31-59.2,32.77-87.88,50.67c-28.51,17.79-58.61,31.55-91.65,37.72
			c-40.76,7.61-78.45,0.98-110.34-27.62c-2.76-2.47-4.75-5.79-7.1-8.71c4.69-9.32,10.38-18.27,13.87-28.02
			c9.56-26.7,12.16-54.31,9.3-82.61C979.31,1192.43,973.44,1168.69,960.08,1147.16z"/>
		<path fill="#FDCD30" d="M1662.12,1464.24c-13.7,15.46-29.36,28.23-48.85,35.76c-9.74-10.48-19.46-20.99-29.23-31.45
			c-23.34-24.97-46.71-49.92-70.08-74.86c-30.76-32.83-61.37-65.8-92.38-98.4c-15.32-16.1-37.15-17.44-54.62-4.04
			c-13.66,10.48-27.19,21.15-40.69,31.84c-63.66,50.39-128.77,98.79-197.19,142.57c-21.36,13.67-42.84,27.34-66.68,36.61
			c-19.63,7.63-39.33,8.14-59.74,1.41c1.2-1.99,1.99-3.54,3-4.93c9.54-13.18,13.79-27.93,14.67-44.15
			c1.2-21.95-2.98-42.95-9.19-63.73c8.33-5.18,16.6-7.8,27.04-5.51c27.11,5.95,52.72-0.81,77.28-12.2
			c35.2-16.32,66.61-38.55,96.75-62.74c7.02-5.64,14.21-11.07,21.32-16.6c4.27,0.82,8.52,1.93,12.83,2.42
			c14.24,1.61,26.97-3.48,39.48-9.37c32.73-15.42,65.59-30.58,98.14-46.38c25.49-12.38,55.14-7.05,73.68,13.22
			c15.17,16.59,31.22,32.36,46.9,48.49C1557.07,1356.19,1609.6,1410.21,1662.12,1464.24z"/>
		<path fill="#FDFCFC" d="M1190.08,940.63c6-0.82,12-1.64,18.66-2.56c7.36,46.28,30.81,76.81,79.89,84.12
			c-2.01,5.99-4.07,12.15-6.14,18.3c-17.25-0.68-30.6,8.52-36.13,24.28c-5.32,15.17,2.58,34.55,15.35,40.67
			c-11.2,35.47-22.4,70.94-33.86,107.24c-23.5-2.53-46.55-5.01-70.16-7.55c1.31-3.31,2.26-5.69,3.18-8.01
			c6.19-0.84,12.24-1.46,18.22-2.53c6.2-1.11,10.38-4.75,12.58-10.82c13.38-36.93,26.86-73.83,40.23-110.76
			c0.64-1.77,0.61-3.78,0.92-5.85c-4.55-1.78-5.37,1.05-6.41,3.81c-3.78,10.05-7.63,20.07-11.46,30.11
			c-1.69-2.34-3.43-4.64-5.05-7.03c-13.21-19.43-36.54-27.99-58.87-21.62c-24.91,7.11-39.15,30.42-38.26,49.52
			c-8.36-2.97-16.73-5.94-25.1-8.91c0.29-4.03,0.92-8.07,0.83-12.1c-0.58-24.48-25.69-43.89-49.62-38.5
			c-19.74,4.45-31.22,17.04-34.35,37.68c-7.73,1.03-15.45,2.07-23.18,3.1l0.18,0.13c7.8-13.91,15.08-28.15,23.52-41.67
			c15.34-24.58,32.88-47.59,54.54-66.99c8.13-7.29,17.83-12.82,26.82-19.16c2.99,22.63,19.17,41.3,41.96,46.2
			c22.68,4.87,43.61-1.78,57.93-21.64C1199.85,981.34,1200.17,961.18,1190.08,940.63z"/>
		<path fill="#FCCD2F" d="M1514.93,1476.86c15.98,11.74,31.96,23.48,47.94,35.21c2.57,1.89,5.19,3.72,7.83,5.62
			c19.67-1.62,37.73-7.87,53.82-16.16c8.19,7.89,15.88,15.29,24.55,23.65c-2.95,11.42-6.28,24.34-9.57,37.07
			c-1.48,0.26-2.33,0.55-3.19,0.55c-59.32,0.02-118.63,0.02-178.61,0.02c-1.41-11.46-9.77-16.75-19.51-19.38
			c-17.15-4.62-34.55-8.34-51.9-12.17c-18.63-4.11-35.53-11.29-48.87-25.51c-13.58-14.48-14.62-30.97-8.3-48.78
			c17.95,1.93,35.9,3.82,53.84,5.8c23.72,2.63,47.43,5.44,71.16,7.98C1474.38,1472.93,1494.66,1474.84,1514.93,1476.86z"/>
		<path fill="#FDFCFC" d="M985.73,1364.5c10.16,5.48,20.33,10.95,30.4,16.38c-20.45,9.67-41.25,18.92-61.5,29.23
			c-19.18,9.76-37.79,20.64-56.67,30.99c-2.76,1.51-5.66,2.78-8.5,4.16c-3.04-9.56-9.62-16.52-17.09-22.7
			c-15.25-12.62-32.85-18.43-52.64-17.65c4.99-26.16,9.93-52.34,15.03-78.48c0.88-4.53,2.46-8.93,3.72-13.39
			c33.56,2.02,63.33-16.65,75.43-47.29c11.87-30.06,2.51-63.74-23.61-84.99c12.32-20.76,23.73-42.13,37.15-62.14
			c27.51-41.02,60.99-76.69,100.53-106.5c2.32-1.75,4.78-3.31,7.18-4.95c0.35,0.6,0.7,1.21,1.05,1.81
			c-18.48,22.6-35.58,46.15-49.99,71.61c-18.99,33.54-35.82,68-45.96,105.38c-0.45,1.66-0.56,3.42-0.83,5.13
			c-0.48,1.73-0.96,3.46-1.44,5.19c-0.7,3.5-1.4,7.01-2.1,10.51c-0.43,1.75-0.86,3.5-1.29,5.25c-0.22,2.16-0.43,4.33-0.65,6.49
			c-0.39,1.93-0.78,3.87-1.17,5.8c-3.01,20.36-2.84,40.65,1.3,60.87c0.23,1.12,0.02,2.32,0.01,3.49c-5.5,3.6-11.77,6.42-16.38,10.93
			c-19.02,18.62-17.73,48.58,2.33,67.56C937.71,1383.89,970.11,1383.63,985.73,1364.5z"/>
		<path fill="#FCCC2F" d="M1339.25,1234.55c-4.64,2.39-9.27,4.78-14.11,7.27c-23.02-15.93-48.79-23.46-76.45-26.18
			c10.51-23.27,20.84-45.93,30.98-68.68c25.14-56.38,50.06-112.85,75.4-169.14c3.75-8.34,9.31-15.86,14.92-25.25
			c3.11,5.25,5.16,9.87,10.39,5.77c1.86,2.19,3.62,4.26,7.25,8.53c2.82-3.54,5.09-6.41,7.17-9.02c1.54,0.88,3.87,3.27,6.07,3.15
			c1.94-0.11,4.54-2.65,5.43-4.73c2.79-6.51,6.03-13.09,4.85-22.07c-8.14,4.13-5.17,12.86-10.35,17.59
			c-1.75-9.09,0.47-16.62,5.94-23.35c9.6,2.57,13.44,7.24,13.52,16.48c0.09,10.38-3.82,19.2-10.7,26.82
			c-3.47,1.37-7.25,2.24-10.34,4.2c-10.23,6.46-15.45,16.32-17.61,27.96c-4.16,22.4-8.19,44.82-12.42,67.21
			c-2.73,14.48-5.81,28.89-8.54,43.36c-4.61,24.37-9.17,48.75-13.55,73.17C1344.3,1203.24,1341.86,1218.91,1339.25,1234.55z"/>
		<path fill="#FBCB2F" d="M1312.75,930.69c1.63,16.99,1.66,33.92-5.15,49.93c-5,11.75-10.88,23.12-16.26,34.41
			c-36.03,0.34-71.01-28.14-76.22-78.72c15.85-14.05,31.93-28.32,47.94-42.52c5.19,2.78,9.55,5.9,14.41,7.6
			c16.13,5.64,31.03,2.79,44.43-7.78c8.04-6.34,9.67-14.25,4.29-23.13c-3.14-5.19-5.86-10.57-4.14-16.45
			c1.23-4.19,3.68-8.71,6.95-11.47c5.26-4.44,11.08-2.65,14.82,3.23c8.05,12.66,12.98,14.27,25.33,5.79
			c10.03-6.88,19.11-15.17,28.41-23.07c1.92-1.63,2.97-4.28,4.42-6.46c0.89,0.43,1.77,0.86,2.66,1.29
			c2.12,12.88,5.01,25.7,6.06,38.66c0.62,7.61,3.66,11.79,10.11,14.63c3.96,1.74,7.73,3.88,13.09,6.6c-3.67,3.34-6.16,6.55-9.42,8.4
			c-8.92,5.06-16.87,10.6-16.91,21.61c-8.76,4.56-19,1.33-27.82,8.3c8.9,4.06,16.03-0.99,23.2-0.16
			c-6.96,19.7-23.14,28.83-43.05,24.47c-13.88-3.04-26.16-9.66-38.33-16.63c-2.57-1.47-5.69-1.99-8.55-2.95
			C1312.94,927.76,1312.84,929.22,1312.75,930.69z M1390.28,877.74c4.95-1.2,9.12-1.57,12.71-3.22c7.68-3.53,8.42-10.83,1.56-15.73
			c-8.66-6.2-18.4-6.94-28.05-2.84c-2.73,1.16-6.07,4.86-6.08,7.41c-0.02,3.04,2.54,7.26,5.24,8.9
			C1380.18,875,1385.71,876.12,1390.28,877.74z M1340.22,865.32c-0.55-6.03-1.11-12.06-1.74-18.87c-6.66,2.9-10.76,7.08-13.83,14.54
			c3.73-0.33,6.21-0.55,8.65-0.76C1335.57,866.1,1335.57,866.1,1340.22,865.32z"/>
		<path fill="#FCFBF9" d="M1662.12,1464.24c-52.53-54.02-105.05-108.04-157.57-162.07c-15.68-16.12-31.73-31.9-46.9-48.49
			c-18.54-20.27-48.18-25.59-73.68-13.22c-32.55,15.8-65.41,30.95-98.14,46.38c-12.5,5.89-25.23,10.97-39.48,9.37
			c-4.31-0.49-8.55-1.59-12.83-2.42c46.8-22.89,93.34-46.33,140.52-68.42c22.3-10.44,46.05-12.14,69.74-3
			c12.47,4.81,23.11,12.33,32.29,21.92c34.5,36.06,69.07,72.06,103.34,108.34c28.86,30.55,57.34,61.46,85.97,92.22
			c2.17,2.33,4.23,4.76,7.06,7.95C1668.92,1456.7,1665.52,1460.47,1662.12,1464.24z"/>
		<path fill="#FCF9EF" d="M1011.14,1390.84c6.21,20.79,10.39,41.78,9.19,63.73c-0.88,16.22-5.13,30.97-14.67,44.15
			c-1.01,1.39-1.79,2.94-3,4.93c20.41,6.73,40.11,6.23,59.74-1.41c23.84-9.27,45.32-22.94,66.68-36.61
			c68.42-43.77,133.53-92.18,197.19-142.57c13.5-10.69,27.03-21.35,40.69-31.84c17.47-13.4,39.31-12.06,54.62,4.04
			c31,32.6,61.62,65.57,92.38,98.4c23.37,24.94,46.73,49.89,70.08,74.86c9.77,10.45,19.49,20.96,29.23,31.45
			c-2.07,0.87-4.15,1.75-6.22,2.62c-9.27-10.11-18.44-20.32-27.83-30.32c-39.78-42.39-79.64-84.7-119.44-127.07
			c-14.2-15.11-28.37-30.25-42.46-45.47c-7.7-8.32-17.23-12.63-28.24-10.55c-6.59,1.25-13.43,4.28-18.79,8.32
			c-39.86,30.01-79.09,60.87-119.08,90.7c-48.89,36.46-98.38,72.15-151.47,102.4c-12.39,7.06-25.36,13.27-38.56,18.67
			c-22.54,9.22-45.45,6.62-67.54-1.59c-34.37-12.78-62.48-34.83-86.95-61.77c-0.57-0.63-0.83-1.53-1.24-2.3
			c1.69-0.94,3.39-1.87,5.08-2.81c10.85,13.38,23.73,24.63,37.79,34.4c9.44,6.56,19.67,11.99,29.55,17.93
			c5.64,2.86,11.28,5.71,17.13,8.67c10.6-10.58,15.86-23.14,18.22-37.23c3.44-20.58,0.36-40.59-4.73-60.48
			c-0.93-3.63-1.92-7.24-3.08-11.62C1007.58,1391.87,1009.36,1391.36,1011.14,1390.84z"/>
		<path fill="#FDFCFC" d="M960.08,1147.16c13.35,21.53,19.23,45.27,21.75,70.25c2.86,28.3,0.25,55.91-9.3,82.61
			c-3.49,9.75-9.18,18.7-13.87,28.02c-11.45-13.19-15.88-29.39-19.72-45.85c-0.36-1.36-0.72-2.72-1.07-4.09
			c-5.2-44.9,4.08-87.46,20.85-128.8C959.03,1148.53,959.62,1147.87,960.08,1147.16z"/>
		<path fill="#FDFCFC" d="M1211.51,1110.31c-7.19,20.54-14.38,41.07-21.9,62.57c-17.64-23.73-42.49-35.27-67.47-46.63
			c-1.32-0.6-2.56-1.36-3.83-2.05c0.51-3.44,0.8-6.94,1.56-10.32c4.4-19.55,16.62-32.07,35.96-36.09
			c18.8-3.91,35.26,1.85,47.37,17.24C1206.72,1099.53,1208.78,1105.19,1211.51,1110.31z"/>
		<path fill="#FDFCFC" d="M1091.74,972.79c25.06-13.64,51.79-22.7,79.53-28.96c4.18-0.94,8.53-1.18,12.8-1.74
			c1.43,3.82,3.03,7.58,4.24,11.46c6.23,19.94-1.42,42.27-18.44,54.15c-18.07,12.62-40.5,12.22-57.88-0.4
			C1100.07,998.64,1094.67,986.53,1091.74,972.79z"/>
		<path fill="#FCCC2F" d="M977.87,1493.15c-9.88-5.94-20.11-11.37-29.55-17.93c-14.06-9.77-26.93-21.02-37.79-34.4
			c19.61-10.7,39.12-21.59,58.87-32.02c9.2-4.86,18.88-8.82,29.06-13.52c3.74,18.37,3.51,36.1,1.65,53.62
			c-1.02,9.63-4.65,19.11-8.03,28.31C989.55,1484.11,984.64,1489.65,977.87,1493.15z"/>
		<path fill="#FDFCFC" d="M840.33,1306.63c11.62-41.48,26.46-81.69,46.69-119.82c18.11,11.54,30.74,42.05,23.41,69.34
			C902.04,1287.43,872.02,1309.08,840.33,1306.63z"/>
		<path fill="#F7C92E" d="M1287.23,1111.98c2.72-29.27,5.42-58.55,8.22-87.81c0.27-2.84,0.74-5.84,1.93-8.37
			c11.03-23.43,22.23-46.77,33.42-70.12c0.48-0.99,1.34-1.8,1.86-2.46c10.24,3.43,20.13,6.75,29.9,10.02
			c-11.55,15.65-18.59,34.06-26.65,51.88c-14.5,32.07-28.44,64.39-42.65,96.58c-1.62,3.68-3.47,7.26-5.21,10.88
			C1287.78,1112.38,1287.51,1112.18,1287.23,1111.98z"/>
		<path fill="#FBFAF8" d="M1514.93,1476.86c-20.27-2.02-40.55-3.93-60.8-6.1c-23.73-2.54-47.44-5.35-71.16-7.98
			c-17.94-1.99-35.89-3.87-53.84-5.8c2.52-10.54,12.13-15.08,18.84-22.88c11.8,1.59,23.6,3.11,35.37,4.79
			c31.4,4.49,62.81,8.93,94.16,13.71c4.11,0.63,8.4,2.43,11.81,4.81C1498.08,1463.55,1506.41,1470.33,1514.93,1476.86z"/>
		<path fill="#FDFCFC" d="M885.51,1448.05c-15.18,10.76-30.66,21.12-45.43,32.42c-9.43,7.21-17.8,15.81-27.68,24.72
			c0.07-31.76,1.59-62.78,6.24-93.63c9.18,1.16,18.65,1.28,27.49,3.7C863.96,1420.13,875.87,1432.91,885.51,1448.05z"/>
		<path fill="#FBFAF8" d="M1339.25,1234.55c2.6-15.64,5.04-31.31,7.84-46.92c4.38-24.41,8.94-48.79,13.55-73.17
			c2.74-14.48,5.81-28.89,8.54-43.36c4.22-22.39,8.25-44.81,12.42-67.21c2.16-11.63,7.38-21.49,17.61-27.96
			c3.1-1.96,6.88-2.83,10.34-4.2c-16.53,12.89-15.84,32.34-19.18,50.27c-3.5,18.77-7.2,37.51-10.46,56.33
			c-2.08,11.99-3.32,24.12-5.28,36.13c-2,12.28-4.47,24.49-6.62,36.74c-2,11.42-3.95,22.84-5.75,34.29
			c-2.12,13.46-4.05,26.95-6.19,41.31C1350.75,1229.27,1345,1231.91,1339.25,1234.55z"/>
		<path fill="#FDFCFC" d="M935.74,1294.33c7.44,27.53,25.09,48.1,45.56,66.73c-0.89,0.75-1.76,1.51-2.67,2.24
			c-13.48,10.77-28.33,13.52-44.07,6.09c-16.34-7.71-24.4-20.97-23.63-39.29C911.65,1312.91,920.28,1301.26,935.74,1294.33z"/>
		<path fill="#F9CA2E" d="M1721.57,1505.69c-7.88,13.21-20.64,16.87-33.63,18.55c-18.66,2.41-36.42,0.57-47.26-19.33
			c16.15-11.43,27.2-27.93,36.56-47.18C1692.15,1473.88,1706.52,1489.42,1721.57,1505.69z"/>
		<path fill="#F9CA2E" d="M1473.42,1446.48c-26.77-3.92-53.54-7.85-80.3-11.77c-12.57-1.84-25.14-3.7-39.37-5.79
			c14.91-14.2,28.7-27.33,43.07-41.01c25.81,19.48,51.11,38.57,76.4,57.66l-0.48,0.58L1473.42,1446.48z"/>
		<path fill="#FCFBF9" d="M1081.61,1110.85c-9.9-2.28-19.71-5.19-29.73-6.69c-13.48-2.03-27.13-2.97-40.7-4.38
			c1.37-18.43,18.49-35.41,42.35-31.18C1072.57,1071.97,1086.17,1091.24,1081.61,1110.85z"/>
		<path fill="#FDD13F" d="M1091.74,972.79c2.92,13.75,8.33,25.85,20.26,34.51c17.38,12.62,39.81,13.02,57.88,0.4
			c17.02-11.88,24.66-34.21,18.44-54.15c-1.21-3.88-2.82-7.65-4.24-11.46c2-0.48,4-0.97,6-1.45c10.09,20.55,9.78,40.71-3.77,59.5
			c-14.32,19.86-35.25,26.51-57.93,21.64c-22.8-4.89-38.97-23.57-41.96-46.2C1088.19,974.64,1089.97,973.71,1091.74,972.79z"/>
		<path fill="#FDD13F" d="M840.33,1306.63c31.69,2.45,61.71-19.2,70.1-50.48c7.32-27.29-5.31-57.8-23.41-69.34
			c1.09-2.02,2.18-4.03,3.28-6.05c26.13,21.24,35.49,54.93,23.61,84.99c-12.11,30.65-41.87,49.31-75.43,47.29
			C839.09,1310.9,839.71,1308.77,840.33,1306.63z"/>
		<path fill="#F7C92E" d="M1809.34,1509.88c-0.31,9.47-0.63,18.93-0.97,29.08c-11.55-5.97-21.45-11.39-31.62-16.27
			c-9.83-4.72-19.93-8.88-30.89-13.71c7.65-1.58,14.17-2.93,20.68-4.27C1780.81,1506.44,1795.07,1508.16,1809.34,1509.88z"/>
		<path fill="#FDD13F" d="M935.74,1294.33c-15.46,6.94-24.1,18.59-24.81,35.77c-0.77,18.32,7.29,31.57,23.63,39.29
			c15.74,7.43,30.59,4.68,44.07-6.09c0.91-0.72,1.78-1.49,2.67-2.24c1.47,1.15,2.95,2.3,4.42,3.44
			c-15.61,19.13-48.02,19.39-65.68,2.67c-20.06-18.99-21.36-48.95-2.33-67.56c4.61-4.51,10.87-7.33,16.38-10.93
			C934.64,1290.56,935.19,1292.44,935.74,1294.33z"/>
		<path fill="#FDD13F" d="M1211.51,1110.31c-2.73-5.12-4.79-10.78-8.32-15.27c-12.11-15.4-28.57-21.15-47.37-17.24
			c-19.34,4.02-31.56,16.54-35.96,36.09c-0.76,3.39-1.05,6.88-1.56,10.32c-1.85-0.75-3.69-1.5-5.54-2.24
			c-0.89-19.1,13.35-42.42,38.26-49.52c22.33-6.37,45.65,2.19,58.87,21.62c1.62,2.38,3.37,4.69,5.05,7.03
			C1213.8,1104.17,1212.65,1107.24,1211.51,1110.31z"/>
		<path fill="#FBFAF8" d="M1280.66,1046.64c-5.84,17.91-11.68,35.82-17.52,53.74c-0.77-0.87-1.46-1.83-2.32-2.6
			c-10.04-9.07-12.16-20.4-7.79-32.54C1257.54,1052.74,1267.33,1046.72,1280.66,1046.64z"/>
		<path fill="#FDD13F" d="M1081.61,1110.85c4.56-19.61-9.04-38.88-28.09-42.26c-23.85-4.23-40.98,12.75-42.35,31.18
			c-2.21,0.12-4.43,0.25-6.64,0.37c3.14-20.64,14.61-33.23,34.35-37.68c23.93-5.4,49.04,14.02,49.62,38.5
			c0.09,4.02-0.53,8.07-0.83,12.1C1085.65,1112.32,1083.63,1111.58,1081.61,1110.85z"/>
		<path fill="#F7C92E" d="M1834.46,1538.19c-2.91,6.83-5.82,13.65-9.27,21.76c-4.9-6.41-8.55-11.17-12.08-15.79
			c1.13-11.42,2.24-22.64,3.34-33.86c6.06,0.57,12.12,1.14,18.17,1.7c0.29,7.32,0.58,14.64,0.87,21.96
			C1835.15,1535.38,1834.8,1536.79,1834.46,1538.19z"/>
		<path fill="#FBFAF8" d="M1738.47,1481.74c7.04-9.93,13.82-20.05,21.22-29.69c3.33-4.34,8.24-6.37,14.19-3.67
			c3.47,8.19-3.08,13.46-5.67,19.82c-5.88,5.96-11.76,11.93-17.7,17.95c-3.81-0.38-7.28-0.56-10.67-1.2
			C1739.2,1484.82,1738.92,1482.85,1738.47,1481.74z"/>
		<path fill="#FDD13F" d="M885.51,1448.05c-9.64-15.14-21.55-27.92-39.38-32.8c-8.84-2.42-18.31-2.54-27.49-3.7
			c0.37-2.21,0.73-4.43,1.1-6.64c19.78-0.78,37.39,5.03,52.64,17.65c7.47,6.18,14.05,13.14,17.09,22.7
			C888.14,1446.19,886.82,1447.12,885.51,1448.05z"/>
		<path fill="#FDD13F" d="M1280.66,1046.64c-13.33,0.09-23.12,6.1-27.62,18.6c-4.37,12.13-2.24,23.46,7.79,32.54
			c0.86,0.77,1.55,1.73,2.32,2.6c-0.48,1.69-0.96,3.39-1.44,5.08c-12.77-6.12-20.67-25.5-15.35-40.67
			c5.53-15.76,18.88-24.97,36.13-24.28C1281.88,1042.54,1281.27,1044.59,1280.66,1046.64z"/>
		<path fill="#F7C92E" d="M1896.6,1512.48c-13.27-16.74-22.45-34.54-21.52-41.53c4.18-2.79,6.83-0.81,9.03,2.94
			c5.29,9.01,10.64,17.99,16.23,27.43C1899.25,1504.59,1898.06,1508.12,1896.6,1512.48z"/>
		<path fill="#F7C92E" d="M1864.9,1504.15c2.23-1.95,3.85-3.38,6.52-5.72c8.43,9.46,12.72,20.67,19.78,30.78
			c-1.08,3.5-2.18,7.05-3.93,12.72C1879.15,1528.96,1872.23,1517.16,1864.9,1504.15z"/>
		<path fill="#F7C92E" d="M1717.92,1531.91c5.05,3.8,5.44,5.19,1.29,9.57c-6.81,7.18-13.86,14.13-20.77,21.13c-4.38,0-8.43,0-10.6,0
			C1697.08,1553.18,1707.25,1542.8,1717.92,1531.91z"/>
		<path fill="#F7C92E" d="M1730.39,1562.6c-5.35,0-9.06,0-14.26,0c5.81-5.99,10.74-11.18,15.78-16.26
			c5.09-5.14,10.29-10.18,15.18-15.01c7.63,2.73,8.41,5.17,3.59,10.29C1743.91,1548.8,1736.96,1555.81,1730.39,1562.6z"/>
		<path fill="#F3F3F3" d="M1809.34,1509.88c-14.26-1.72-28.53-3.44-42.79-5.17c5.61-2.75,11.22-5.51,16.99-8.34
			c8.18,1.18,16.44,2.37,25.81,3.72C1809.34,1503.27,1809.34,1506.57,1809.34,1509.88z"/>
		<path fill="#F3F3F3" d="M1790.31,1487.37c-0.68-0.43-1.82-1.36-1.98-1.22c-8.93,8.22-18.36,2.18-28.28,1.78
			c8.38-9,20.42-12.58,28.55-9.06c0.55,2.88,1.09,5.72,1.63,8.57L1790.31,1487.37z"/>
		<path fill="#F3F3F3" d="M1738.36,1502.8c11.85-11.78,11.85-11.78,33.67-7.69C1761.58,1501.15,1750.76,1502.47,1738.36,1502.8z"/>
		<path fill="#F3F3F3" d="M1834.63,1512.01c-6.06-0.57-12.12-1.14-18.17-1.7c-0.27-2.75-0.54-5.49-0.92-9.31
			c6.42,0.84,11.93,1.55,17.89,2.33C1833.86,1506.48,1834.24,1509.24,1834.63,1512.01z"/>
		<path fill="#F3F3F3" d="M1729.21,1488.71c-1.74,3.9-3.09,6.93-4.71,10.57c-3.97-4.18-7.45-7.85-12.21-12.86
			C1718.74,1487.29,1723.57,1487.95,1729.21,1488.71z"/>
		<path fill="#1E1E1B" d="M1734.66,1489.21c2.91,0.17,5.12,0.3,8.94,0.52c-4.36,3.6-7.53,6.21-10.69,8.82
			c-0.5-0.37-0.99-0.75-1.49-1.12C1732.39,1494.96,1733.36,1492.49,1734.66,1489.21z"/>
		<path fill="#1E1E1B" d="M1037.54,1004.61c1.78-1.6,3.55-3.21,5.33-4.81c0.6,0.61,1.2,1.23,1.8,1.84c-1.41,1.17-2.82,2.34-4.24,3.5
			C1039.47,1004.97,1038.5,1004.79,1037.54,1004.61z"/>
		<path fill="#1E1E1B" d="M932.78,1224.33c0.39-1.93,0.78-3.87,1.17-5.8C933.56,1220.46,933.17,1222.39,932.78,1224.33z"/>
		<path fill="#1E1E1B" d="M937.99,1196.28c0.48-1.73,0.96-3.46,1.44-5.19C938.95,1192.82,938.47,1194.55,937.99,1196.28z"/>
		<path fill="#1E1E1B" d="M934.6,1212.04c0.43-1.75,0.86-3.5,1.29-5.25C935.46,1208.54,935.03,1210.29,934.6,1212.04z"/>
		<path fill="#1E1E1B" d="M1388.53,950.7c0.51,0.68,1.01,1.36,1.52,2.03c-0.35,0.18-0.7,0.35-1.06,0.53
			c-0.21-0.81-0.41-1.62-0.62-2.43C1388.38,950.84,1388.53,950.7,1388.53,950.7z"/>
		<path fill="#1E1E1B" d="M1388.38,950.84c-0.51-0.67-1.02-1.34-1.54-2c0.35-0.17,0.7-0.35,1.05-0.52c0.21,0.8,0.43,1.6,0.64,2.4
			C1388.53,950.7,1388.38,950.84,1388.38,950.84z"/>
		<path fill="#1E1E1B" d="M1312.75,930.69c0.09-1.46,0.18-2.93,0.28-4.39C1312.94,927.76,1312.84,929.22,1312.75,930.69z"/>
		<path fill="#1E1E1B" d="M937.87,1278.1c0.36,1.36,0.72,2.72,1.07,4.09C938.59,1280.82,938.23,1279.46,937.87,1278.1z"/>
		<path fill="#1E1E1B" d="M1834.46,1538.19c0.35-1.41,0.69-2.82,1.04-4.23C1835.15,1535.38,1834.8,1536.79,1834.46,1538.19z"/>
		<polygon fill="#1E1E1B" points="418.58,1475.88 417.79,1475.88 418.63,1476.07 		"/>
		<path fill="#FDFCFC" d="M981.35,1103.25c0.04,0.4,0.07,0.79,0.11,1.19c-0.34-0.09-0.68-0.18-1.03-0.26
			c0.37-0.26,0.73-0.53,1.1-0.79L981.35,1103.25z"/>
		<polygon fill="#1E1E1B" points="1473.22,1445.57 1473.87,1446.08 1473.42,1446.48 1472.74,1446.15 		"/>
		<path fill="#FDFCFC" d="M1035.15,1007.17c0.48-0.39,0.96-0.79,1.43-1.18c0.38,0.36,0.77,0.7,1.18,1.04
			c-0.52,0.65-1.04,1.31-1.56,1.96C1035.86,1008.37,1035.5,1007.77,1035.15,1007.17z"/>
		<path fill="#FDFCFC" d="M1037.54,1004.61c0.96,0.18,1.93,0.36,2.89,0.53c-0.89,0.62-1.78,1.25-2.67,1.87
			c-0.4-0.33-0.8-0.68-1.18-1.04C1036.93,1005.54,1037.24,1005.08,1037.54,1004.61z"/>
		<path fill="#FEFDFA" d="M512.82,1273.37c3.93,3.57,1.37,6.17-0.21,8.79c-14.05,23.24-28.12,46.47-42.17,69.71
			c-19.33,31.99-38.64,63.99-57.99,95.97c-1.2,1.98-2.61,3.82-3.8,5.55c-15.43,1.88-38.75,0.99-44.16-1.64
			C366.39,1445.99,502.83,1281.73,512.82,1273.37z"/>
		<path fill="#1E1E1B" d="M699.54,1085.46c0-7.96,0-14.13,0-20.21c4.42-1.4,5.26,1.14,4.75,4
			C703.42,1074.16,707.2,1080.47,699.54,1085.46z"/>
		<path fill="#E6BB2D" d="M1040.18,439.49c-9.58-1.29-20.87-2.56-32.06-4.43c-4.23-0.71-8.35-2.55-12.3-4.34
			c-4.05-1.83-7.79-4.28-7.61-9.62c0.18-5.24,3.87-7.92,7.99-9.42c6.53-2.4,13.24-4.67,20.08-5.81c19.76-3.3,39.55-2.9,59.15,1.45
			c4.23,0.94,8.37,2.53,12.37,4.22c4.42,1.87,8.71,4.62,8.56,10c-0.15,5.33-4.54,8.13-8.95,9.77c-5.98,2.22-12.15,4.25-18.42,5.26
			C1060.09,438.01,1051.02,438.45,1040.18,439.49z M994.35,421.09c13.39,15.3,81.94,15.31,95.48,0.01
			C1074.13,406.33,1010.67,406.32,994.35,421.09z"/>
		<path fill="#1B1B1A" d="M1816.66,1430.3c-0.35-0.33-0.7-0.66,0.13,0.12c-0.67-0.88-0.36-0.47-0.05-0.06L1816.66,1430.3z"/>
		<path fill="#1E1E1B" d="M1390.28,877.74c-4.57-1.62-10.1-2.74-14.63-5.49c-2.7-1.64-5.25-5.85-5.24-8.9
			c0.01-2.55,3.35-6.25,6.08-7.41c9.65-4.1,19.39-3.36,28.05,2.84c6.86,4.91,6.11,12.21-1.56,15.73
			C1399.4,876.16,1395.23,876.53,1390.28,877.74z M1388.79,859.84c-4.78-0.65-9.29-0.21-13.4,4.42c3.32,4.15,7.24,6.04,12.35,5.89
			C1388.1,866.58,1388.43,863.42,1388.79,859.84z"/>
		<path fill="#1E1E1B" d="M1340.22,865.32c-4.65,0.78-4.65,0.78-6.91-5.1c-2.44,0.22-4.92,0.43-8.65,0.76
			c3.07-7.45,7.17-11.63,13.83-14.54C1339.11,853.26,1339.67,859.29,1340.22,865.32z"/>
		<path fill="#1E1D1A" d="M994.35,421.09c16.32-14.77,79.78-14.76,95.48,0.01C1076.29,436.4,1007.75,436.39,994.35,421.09z"/>
		<path fill="#F3F3F3" d="M1388.79,859.84c-0.37,3.59-0.69,6.74-1.06,10.31c-5.11,0.15-9.03-1.74-12.35-5.89
			C1379.5,859.63,1384.01,859.18,1388.79,859.84z"/>
	</g>
</g>
</svg>
